<svg xmlns="http://www.w3.org/2000/svg" xmlns:xlink="http://www.w3.org/1999/xlink" width="500" zoomAndPan="magnify" viewBox="0 0 375 374.999991" height="500" preserveAspectRatio="xMidYMid meet" version="1.0"><defs><g/><clipPath id="b79842d990"><path d="M 0 11 L 375 11 L 375 307.386719 L 0 307.386719 Z M 0 11 " clip-rule="nonzero"/></clipPath></defs><rect x="-37.5" width="450" fill="#ffffff" y="-37.499999" height="449.999989" fill-opacity="1"/><rect x="-37.5" width="450" fill="#ffffff" y="-37.499999" height="449.999989" fill-opacity="1"/><path fill="#100f0d" d="M 3.347656 159.128906 C 3.347656 159.128906 3.289062 159.683594 3.183594 160.738281 C 3.101562 161.785156 3.046875 163.355469 3.238281 165.332031 C 3.421875 167.320312 3.914062 169.714844 4.855469 172.351562 C 5.785156 174.988281 7.207031 177.847656 9.214844 180.667969 C 11.191406 183.507812 13.738281 186.328125 16.914062 188.765625 C 17.6875 189.347656 18.382812 189.992188 19.257812 190.554688 C 20.125 191.121094 21 191.695312 21.886719 192.28125 C 23.703125 193.300781 25.539062 194.375 27.523438 195.226562 C 31.433594 197.050781 35.652344 198.511719 40.015625 199.578125 C 41.09375 199.890625 42.203125 200.101562 43.300781 200.359375 L 45.023438 200.738281 L 46.675781 201.003906 C 48.882812 201.351562 51.09375 201.695312 53.308594 202.042969 C 53.867188 202.117188 54.410156 202.21875 54.972656 202.285156 L 56.6875 202.402344 L 60.105469 202.648438 C 61.238281 202.726562 62.375 202.808594 63.507812 202.882812 C 64.070312 202.917969 64.636719 202.976562 65.203125 202.992188 L 66.878906 202.964844 C 69.113281 202.925781 71.335938 202.878906 73.523438 202.832031 L 75.160156 202.796875 L 76.777344 202.644531 C 77.855469 202.535156 78.921875 202.429688 79.976562 202.320312 C 82.089844 202.082031 84.179688 201.945312 86.191406 201.582031 C 88.203125 201.199219 90.164062 200.824219 92.078125 200.460938 C 93.03125 200.277344 93.976562 200.09375 94.898438 199.921875 C 95.824219 199.71875 96.710938 199.421875 97.59375 199.1875 C 99.355469 198.683594 101.054688 198.199219 102.679688 197.734375 C 103.496094 197.5 104.292969 197.269531 105.070312 197.046875 C 105.828125 196.753906 106.566406 196.46875 107.289062 196.191406 C 108.726562 195.628906 110.089844 195.105469 111.375 194.609375 C 112.644531 194.085938 113.863281 193.695312 114.933594 193.171875 C 116 192.652344 116.988281 192.171875 117.867188 191.742188 C 121.40625 190 123.390625 188.980469 123.390625 188.980469 C 123.390625 188.980469 121.273438 189.746094 117.613281 191.128906 C 116.699219 191.488281 115.691406 191.875 114.59375 192.300781 C 113.496094 192.722656 112.246094 193.015625 110.949219 193.417969 C 109.644531 193.800781 108.257812 194.210938 106.796875 194.644531 C 106.066406 194.859375 105.320312 195.078125 104.554688 195.304688 C 103.773438 195.476562 102.976562 195.65625 102.160156 195.839844 C 100.53125 196.199219 98.839844 196.570312 97.082031 196.953125 C 96.203125 197.136719 95.324219 197.371094 94.40625 197.515625 C 93.488281 197.648438 92.558594 197.785156 91.613281 197.925781 C 89.726562 198.199219 87.792969 198.480469 85.8125 198.773438 C 83.835938 199.046875 81.785156 199.0625 79.71875 199.253906 C 78.679688 199.332031 77.640625 199.40625 76.589844 199.488281 L 75.007812 199.597656 L 73.410156 199.589844 C 71.277344 199.574219 69.121094 199.558594 66.945312 199.546875 L 65.308594 199.546875 C 64.769531 199.523438 64.226562 199.464844 63.6875 199.429688 C 62.601562 199.34375 61.511719 199.257812 60.425781 199.171875 L 57.15625 198.921875 L 55.519531 198.792969 C 54.96875 198.722656 54.410156 198.617188 53.859375 198.53125 C 51.644531 198.183594 49.433594 197.828125 47.234375 197.480469 L 45.578125 197.230469 L 44.042969 196.902344 C 42.976562 196.664062 41.902344 196.46875 40.859375 196.183594 C 36.652344 195.164062 32.605469 193.847656 28.835938 192.257812 C 26.933594 191.507812 25.167969 190.539062 23.433594 189.636719 C 22.601562 189.144531 21.78125 188.65625 20.972656 188.171875 C 20.152344 187.722656 19.367188 187.070312 18.582031 186.53125 C 15.523438 184.421875 13.003906 181.894531 10.9375 179.371094 C 6.78125 174.277344 4.78125 168.996094 3.984375 165.222656 C 3.605469 163.316406 3.4375 161.792969 3.386719 160.742188 C 3.363281 159.6875 3.347656 159.128906 3.347656 159.128906 " fill-opacity="1" fill-rule="nonzero"/><path fill="#100f0d" d="M 101.554688 73.25 C 100.6875 73.789062 99.742188 74.371094 98.738281 74.996094 C 96.730469 76.257812 94.425781 77.617188 92.0625 79.335938 C 90.871094 80.171875 89.621094 81.039062 88.328125 81.9375 C 87.054688 82.863281 85.78125 83.882812 84.457031 84.902344 C 81.769531 86.902344 79.109375 89.238281 76.328125 91.613281 C 73.667969 94.121094 70.820312 96.617188 68.191406 99.429688 C 65.472656 102.144531 62.933594 105.113281 60.34375 108.039062 C 57.878906 111.066406 55.421875 114.105469 53.183594 117.230469 C 52.035156 118.769531 50.902344 120.300781 49.886719 121.882812 C 48.84375 123.453125 47.785156 124.980469 46.804688 126.523438 C 44.875 129.628906 42.984375 132.609375 41.386719 135.546875 C 40.570312 137.007812 39.773438 138.429688 39.003906 139.796875 C 38.277344 141.199219 37.585938 142.546875 36.910156 143.84375 C 35.539062 146.414062 34.425781 148.851562 33.417969 150.996094 C 32.398438 153.136719 31.554688 155.015625 30.882812 156.574219 C 29.515625 159.679688 28.773438 161.476562 28.773438 161.476562 C 28.773438 161.476562 29.75 159.796875 31.375 156.820312 C 32.175781 155.320312 33.175781 153.511719 34.367188 151.480469 C 35.554688 149.441406 36.839844 147.117188 38.339844 144.628906 C 39.820312 142.132812 41.425781 139.441406 43.203125 136.636719 C 44.921875 133.800781 46.910156 130.921875 48.875 127.890625 C 49.886719 126.394531 50.972656 124.914062 52.039062 123.390625 C 53.101562 121.863281 54.203125 120.347656 55.355469 118.84375 C 57.578125 115.769531 60.058594 112.828125 62.46875 109.828125 C 64.992188 106.933594 67.472656 103.984375 70.125 101.289062 C 72.675781 98.484375 75.394531 95.933594 77.96875 93.40625 C 80.664062 91.019531 83.160156 88.5625 85.742188 86.488281 C 87.011719 85.425781 88.246094 84.390625 89.441406 83.386719 C 90.664062 82.421875 91.855469 81.492188 92.992188 80.605469 C 95.246094 78.785156 97.410156 77.242188 99.304688 75.839844 C 100.253906 75.140625 101.140625 74.484375 101.964844 73.882812 C 102.808594 73.304688 103.582031 72.777344 104.28125 72.304688 C 107.078125 70.386719 108.660156 69.265625 108.660156 69.265625 C 108.660156 69.265625 106.960938 70.183594 104.003906 71.855469 C 103.261719 72.277344 102.445312 72.742188 101.554688 73.25 " fill-opacity="1" fill-rule="nonzero"/><g clip-path="url(#b79842d990)"><path fill="#100f0d" d="M 119.511719 158.613281 C 119.542969 159.503906 119.574219 160.398438 119.605469 161.296875 C 119.683594 162.332031 119.792969 163.085938 119.882812 164 C 119.925781 164.378906 119.972656 164.761719 120.011719 165.140625 C 86.476562 183.535156 52.058594 188.71875 32.308594 183.871094 C 32.355469 183.421875 32.410156 182.808594 32.488281 182.023438 C 32.589844 180.199219 33.070312 177.664062 33.71875 174.453125 C 34.171875 172.859375 34.554688 171.066406 35.1875 169.175781 C 35.851562 167.289062 36.484375 165.226562 37.425781 163.117188 C 39.140625 158.835938 41.441406 154.140625 44.269531 149.183594 C 44.621094 148.5625 44.976562 147.933594 45.335938 147.300781 C 45.652344 146.765625 46.109375 146.082031 46.492188 145.46875 C 47.300781 144.207031 48.121094 142.925781 48.957031 141.617188 C 50.652344 139.027344 52.289062 136.242188 54.1875 133.582031 C 58.105469 128.371094 61.921875 122.65625 66.753906 117.375 C 67.917969 116.019531 69.085938 114.65625 70.261719 113.277344 C 70.859375 112.597656 71.425781 111.882812 72.054688 111.222656 L 73.988281 109.277344 C 76.574219 106.671875 79.191406 104.035156 81.835938 101.378906 C 87.296875 96.214844 93.058594 91.28125 99.121094 86.65625 C 105.207031 82.085938 111.492188 77.757812 117.894531 73.847656 C 124.339844 69.960938 130.761719 66.402344 137.199219 63.195312 C 143.582031 60.027344 149.960938 57.316406 156.152344 55.242188 C 162.347656 53.148438 168.382812 51.726562 174.046875 50.96875 C 175.46875 50.714844 176.851562 50.597656 178.203125 50.480469 C 179.5625 50.363281 180.878906 50.191406 182.183594 50.195312 C 183.484375 50.160156 184.75 50.125 185.984375 50.089844 C 187.214844 50.140625 188.40625 50.179688 189.570312 50.226562 C 190.148438 50.25 190.71875 50.273438 191.28125 50.296875 C 191.839844 50.359375 192.386719 50.421875 192.929688 50.480469 C 194.003906 50.605469 195.046875 50.726562 196.046875 50.839844 C 198.03125 51.15625 199.835938 51.558594 201.480469 51.859375 C 203.089844 52.304688 204.53125 52.703125 205.785156 53.046875 C 207.050781 53.363281 208.050781 53.851562 208.902344 54.132812 C 210.585938 54.765625 211.484375 55.097656 211.484375 55.097656 C 211.484375 55.097656 210.601562 54.726562 208.949219 54.023438 C 208.105469 53.699219 207.121094 53.160156 205.871094 52.785156 C 204.628906 52.386719 203.199219 51.925781 201.597656 51.410156 C 199.953125 51.042969 198.148438 50.578125 196.152344 50.191406 C 195.148438 50.039062 194.101562 49.878906 193.019531 49.714844 C 192.472656 49.632812 191.921875 49.550781 191.355469 49.46875 C 190.796875 49.425781 190.21875 49.382812 189.632812 49.335938 C 188.460938 49.25 187.25 49.164062 186.003906 49.066406 C 184.753906 49.0625 183.46875 49.050781 182.152344 49.042969 C 180.832031 48.988281 179.476562 49.117188 178.085938 49.1875 C 176.695312 49.265625 175.265625 49.332031 173.851562 49.546875 C 168.101562 50.175781 161.914062 51.476562 155.582031 53.453125 C 149.230469 55.417969 142.730469 58 136.15625 61.070312 C 134.507812 61.820312 132.898438 62.640625 131.25 63.429688 C 129.589844 64.257812 127.984375 65.140625 126.332031 66.003906 C 124.679688 66.859375 123.039062 67.757812 121.414062 68.703125 C 119.789062 69.648438 118.128906 70.550781 116.5 71.53125 C 109.980469 75.417969 103.570312 79.722656 97.339844 84.289062 C 91.144531 88.894531 85.1875 93.886719 79.621094 99.023438 C 76.941406 101.730469 74.285156 104.414062 71.660156 107.058594 L 69.703125 109.046875 C 69.070312 109.722656 68.492188 110.441406 67.886719 111.136719 C 66.695312 112.539062 65.507812 113.929688 64.335938 115.308594 C 59.460938 120.671875 55.542969 126.5625 51.566406 131.90625 L 50.835938 132.914062 L 50.199219 133.960938 C 49.773438 134.652344 49.355469 135.34375 48.9375 136.027344 C 48.105469 137.390625 47.285156 138.742188 46.476562 140.0625 C 45.667969 141.390625 44.875 142.6875 44.09375 143.972656 C 43.699219 144.628906 43.335938 145.1875 42.921875 145.921875 C 42.570312 146.578125 42.222656 147.21875 41.882812 147.859375 C 39.132812 152.96875 36.816406 157.789062 35.226562 162.257812 C 34.351562 164.460938 33.773438 166.609375 33.167969 168.566406 C 32.589844 170.539062 32.265625 172.410156 31.859375 174.058594 C 31.292969 177.445312 30.949219 180.132812 30.953125 181.910156 C 30.921875 182.542969 30.902344 183.0625 30.882812 183.484375 C 27.125 182.429688 23.957031 180.984375 21.5 179.183594 C 16.636719 167.851562 15.699219 154.984375 17.722656 142.785156 C 19.933594 129.511719 25.480469 116.964844 32.449219 105.457031 C 37.621094 96.90625 43.582031 88.875 49.726562 80.988281 C 55.867188 74.566406 62.667969 67.972656 70.128906 61.222656 C 93.203125 40.367188 120.964844 24.921875 148.316406 17.734375 C 172.609375 11.347656 193.152344 12.84375 201.9375 21.636719 C 204.230469 23.933594 206.183594 26.382812 207.816406 28.964844 C 211.296875 35.136719 213.253906 42.3125 213.390625 49.378906 C 213.605469 60.589844 210.097656 71.433594 204.984375 81.519531 C 203.6875 83.972656 202.261719 86.453125 200.695312 88.972656 L 200.695312 88.953125 C 200.695312 88.953125 200.195312 88.875 199.230469 88.726562 C 198.261719 88.578125 196.835938 88.316406 194.902344 88.175781 C 191.070312 87.8125 185.414062 87.582031 178.304688 88.648438 C 171.230469 89.734375 162.6875 92.148438 153.960938 97.132812 C 145.257812 102.0625 136.425781 109.796875 129.960938 120.429688 C 126.742188 125.726562 124.074219 131.664062 122.191406 138.097656 C 120.414062 144.539062 119.328125 151.464844 119.511719 158.613281 Z M 153.519531 134.382812 C 156.753906 132.371094 160.519531 131.261719 164.332031 131.171875 C 161.328125 133.960938 158.179688 136.765625 154.910156 139.582031 C 154.347656 137.847656 153.882812 136.113281 153.519531 134.382812 Z M 152.628906 126.960938 C 152.59375 125.164062 152.691406 123.394531 152.894531 121.675781 C 156.625 110.71875 164.101562 101.695312 173.042969 98.609375 C 180.730469 95.953125 188.96875 94.484375 197.152344 94.359375 C 189.351562 105.675781 178.863281 117.542969 165.816406 129.78125 C 161.433594 129.59375 157.015625 130.679688 153.234375 132.90625 C 152.882812 130.898438 152.667969 128.90625 152.628906 126.960938 Z M 181.296875 181.265625 C 182.484375 180.316406 184.230469 178.910156 186.394531 177 C 187.488281 176.070312 188.664062 174.992188 189.929688 173.824219 C 191.214844 172.664062 192.570312 171.375 193.988281 169.96875 C 196.867188 167.1875 199.972656 163.917969 203.238281 160.234375 C 206.464844 156.511719 209.832031 152.375 213.183594 147.839844 C 215.324219 144.886719 217.46875 141.765625 219.570312 138.503906 C 219.886719 138.617188 220.363281 138.785156 220.988281 139.011719 C 222.234375 139.441406 224.039062 140.097656 226.308594 140.984375 C 228.582031 141.867188 231.332031 142.984375 234.4375 144.375 C 237.550781 145.753906 241.015625 147.414062 244.726562 149.34375 C 248.449219 151.265625 252.390625 153.519531 256.484375 156.015625 C 260.574219 158.515625 264.773438 161.34375 268.996094 164.425781 C 277.445312 170.589844 285.957031 177.871094 293.707031 185.890625 C 301.476562 193.886719 308.503906 202.59375 314.378906 211.226562 C 317.328125 215.53125 319.976562 219.839844 322.328125 224 C 324.679688 228.167969 326.8125 232.152344 328.398438 235.960938 C 330.015625 239.765625 331.199219 243.355469 331.949219 246.589844 C 332.714844 249.824219 333.058594 252.6875 333.140625 255.035156 C 333.25 257.382812 333.042969 259.207031 332.898438 260.4375 C 332.792969 261.078125 332.710938 261.550781 332.660156 261.863281 C 331.140625 262.007812 329.613281 262.101562 328.078125 262.128906 C 319.574219 262.261719 311.027344 260.738281 302.636719 258.644531 C 285.820312 254.429688 269.484375 248.25 254.308594 240.417969 C 239.105469 232.640625 225.050781 223.246094 212.5 212.90625 C 200.582031 203.125 190.046875 192.46875 180.984375 181.515625 C 181.09375 181.433594 181.179688 181.363281 181.296875 181.265625 Z M 222.96875 133.035156 C 226.109375 127.742188 229.074219 122.101562 231.773438 116.234375 C 234.085938 111.285156 236.183594 106.113281 237.917969 100.808594 C 238.019531 100.839844 238.101562 100.863281 238.214844 100.894531 C 239.21875 101.222656 240.726562 101.636719 242.652344 102.304688 C 246.527344 103.570312 252.160156 105.613281 259.128906 108.667969 C 266.101562 111.722656 274.359375 115.917969 283.390625 121.476562 C 292.40625 127.046875 302.144531 134.050781 311.957031 142.648438 C 321.746094 151.253906 331.625 161.441406 340.746094 173.273438 C 345.308594 179.175781 349.683594 185.492188 353.761719 192.183594 C 357.761719 198.875 361.777344 205.914062 364.535156 213.441406 C 365.910156 217.207031 366.980469 221.121094 367.449219 225.109375 C 367.929688 229.082031 367.769531 233.1875 366.769531 237.015625 C 366.179688 239.398438 365.230469 241.660156 364.015625 243.78125 C 364.058594 243.484375 364.097656 243.199219 364.136719 242.886719 C 364.261719 241.914062 364.4375 240.863281 364.496094 239.738281 C 364.6875 237.488281 364.765625 234.949219 364.660156 232.179688 C 364.632812 231.484375 364.601562 230.78125 364.578125 230.058594 C 364.503906 229.339844 364.4375 228.605469 364.367188 227.859375 C 364.3125 227.113281 364.21875 226.355469 364.082031 225.585938 C 363.933594 224.792969 363.878906 224.074219 363.652344 223.199219 C 363.265625 221.6875 362.867188 220.140625 362.460938 218.5625 C 361.960938 216.972656 361.335938 215.351562 360.753906 213.707031 C 359.464844 210.488281 357.976562 207.265625 356.246094 204.109375 C 355.433594 202.496094 354.425781 200.964844 353.53125 199.414062 C 352.582031 197.878906 351.730469 196.292969 350.695312 194.78125 C 348.683594 191.734375 346.742188 188.652344 344.601562 185.78125 C 343.558594 184.335938 342.546875 182.875 341.492188 181.476562 C 340.414062 180.089844 339.347656 178.726562 338.300781 177.382812 C 336.261719 174.660156 334.042969 172.226562 332.046875 169.828125 C 331.058594 168.625 330.015625 167.515625 329.011719 166.449219 C 328.015625 165.375 327.046875 164.335938 326.125 163.339844 C 325.210938 162.332031 324.265625 161.429688 323.367188 160.578125 C 322.476562 159.71875 321.628906 158.902344 320.832031 158.136719 C 320.027344 157.378906 319.308594 156.632812 318.582031 156.015625 C 317.859375 155.394531 317.191406 154.820312 316.589844 154.304688 C 314.179688 152.246094 312.804688 151.070312 312.804688 151.070312 C 312.804688 151.070312 314.128906 152.304688 316.457031 154.453125 C 317.039062 154.988281 317.679688 155.585938 318.375 156.234375 C 319.074219 156.886719 319.761719 157.65625 320.53125 158.441406 C 322.039062 160.058594 323.84375 161.761719 325.597656 163.832031 C 326.492188 164.847656 327.425781 165.910156 328.382812 167.007812 C 329.355469 168.101562 330.355469 169.230469 331.300781 170.460938 C 333.214844 172.902344 335.347656 175.386719 337.296875 178.15625 C 338.300781 179.519531 339.316406 180.910156 340.34375 182.3125 C 341.351562 183.734375 342.308594 185.214844 343.308594 186.679688 C 345.34375 189.59375 347.175781 192.691406 349.0625 195.746094 C 350.03125 197.253906 350.847656 198.890625 351.746094 200.449219 C 352.613281 202.046875 353.542969 203.546875 354.285156 205.148438 C 355.917969 208.269531 357.332031 211.449219 358.515625 214.546875 C 359.035156 216.113281 359.597656 217.621094 360.058594 219.152344 C 360.441406 220.742188 360.8125 222.296875 361.175781 223.808594 C 361.332031 224.441406 361.398438 225.257812 361.515625 225.957031 C 361.636719 226.679688 361.710938 227.398438 361.75 228.113281 C 361.808594 228.824219 361.863281 229.527344 361.914062 230.210938 C 361.933594 230.90625 361.949219 231.585938 361.964844 232.25 C 362.027344 234.914062 361.886719 237.355469 361.703125 239.5 C 361.652344 240.578125 361.476562 241.566406 361.359375 242.488281 C 361.296875 242.949219 361.234375 243.390625 361.179688 243.8125 C 361.09375 244.214844 361.011719 244.597656 360.933594 244.960938 C 360.78125 245.691406 360.636719 246.335938 360.519531 246.902344 C 360.332031 247.488281 360.167969 247.984375 360.042969 248.386719 C 359.800781 249.128906 359.667969 249.535156 359.648438 249.601562 C 357.425781 251.953125 354.847656 254.015625 352.050781 255.71875 C 348.515625 257.859375 344.625 259.507812 340.601562 260.535156 C 339.128906 260.90625 337.632812 261.1875 336.128906 261.429688 C 336.15625 261.25 336.183594 261.082031 336.214844 260.871094 C 336.359375 259.492188 336.566406 257.460938 336.417969 254.902344 C 336.300781 252.339844 335.894531 249.257812 335.046875 245.839844 C 334.214844 242.421875 332.933594 238.671875 331.214844 234.742188 C 329.515625 230.796875 327.296875 226.746094 324.863281 222.546875 C 322.421875 218.339844 319.691406 214 316.644531 209.664062 C 310.582031 200.96875 303.363281 192.226562 295.410156 184.214844 C 287.472656 176.183594 278.789062 168.917969 270.179688 162.78125 C 265.878906 159.714844 261.605469 156.90625 257.445312 154.429688 C 253.285156 151.949219 249.285156 149.722656 245.503906 147.828125 C 241.738281 145.917969 238.226562 144.28125 235.070312 142.929688 C 231.921875 141.558594 229.140625 140.46875 226.832031 139.597656 C 224.519531 138.71875 222.699219 138.082031 221.453125 137.667969 C 221 137.507812 220.648438 137.390625 220.351562 137.289062 C 221.234375 135.902344 222.105469 134.484375 222.96875 133.035156 Z M 372.816406 224.90625 C 371.492188 217.898438 369.359375 212.679688 367.792969 209.234375 C 367.011719 207.496094 366.316406 206.214844 365.84375 205.355469 C 365.378906 204.492188 365.136719 204.046875 365.136719 204.046875 C 365.136719 204.046875 365.363281 204.503906 365.796875 205.382812 C 366.234375 206.253906 366.878906 207.5625 367.59375 209.320312 C 369.03125 212.808594 370.929688 218.074219 372.0625 225.042969 C 373.195312 231.976562 373.5 240.664062 371.492188 250.230469 C 369.492188 259.761719 364.976562 270.113281 357.21875 279.242188 C 353.398438 283.832031 348.710938 287.996094 343.425781 291.628906 C 340.734375 293.363281 337.90625 295.050781 334.949219 296.414062 C 334.242188 296.789062 333.417969 297.089844 332.648438 297.429688 L 331.472656 297.925781 L 331.175781 298.054688 C 331.140625 298.066406 331.039062 298.109375 331.0625 298.09375 L 330.914062 298.144531 L 330.316406 298.34375 C 328.722656 298.882812 327.113281 299.417969 325.496094 299.960938 C 318.949219 301.859375 312.023438 303.238281 304.84375 303.683594 C 303.945312 303.753906 303.054688 303.832031 302.148438 303.910156 C 301.253906 303.976562 300.339844 303.949219 299.4375 303.96875 C 297.621094 303.996094 295.792969 304.015625 293.957031 304.035156 C 290.296875 303.804688 286.570312 303.761719 282.90625 303.21875 C 279.242188 302.902344 275.460938 302.101562 271.675781 301.421875 C 268.089844 300.511719 264.257812 299.660156 260.558594 298.632812 C 253.136719 296.464844 245.691406 294.023438 238.402344 290.996094 C 236.574219 290.242188 234.75 289.488281 232.910156 288.730469 C 231.101562 287.933594 229.308594 287.070312 227.503906 286.246094 C 225.707031 285.386719 223.875 284.609375 222.105469 283.683594 L 216.773438 280.945312 C 213.183594 279.175781 209.753906 277.132812 206.234375 275.222656 C 202.738281 273.253906 199.285156 271.105469 195.8125 269.054688 C 182.289062 260.648438 170 250.113281 159.609375 238.304688 C 149.28125 226.421875 140.757812 213.300781 134.460938 199.6875 C 131.363281 192.933594 128.613281 185.960938 126.542969 179.105469 C 126.066406 177.375 125.59375 175.648438 125.117188 173.9375 C 124.765625 172.226562 124.414062 170.523438 124.0625 168.832031 L 123.800781 167.5625 L 123.644531 166.238281 C 123.539062 165.359375 123.429688 164.480469 123.328125 163.605469 C 123.230469 162.765625 123.09375 161.777344 123.03125 161.070312 C 122.996094 160.214844 122.960938 159.367188 122.921875 158.523438 C 122.671875 151.746094 123.632812 145.136719 125.265625 138.960938 C 127 132.804688 129.496094 127.089844 132.523438 121.976562 C 135.589844 116.867188 139.148438 112.4375 143.023438 108.617188 C 146.882812 104.816406 151.03125 101.722656 155.191406 99.246094 C 163.519531 94.273438 171.761719 91.765625 178.617188 90.582031 C 185.5 89.421875 191.050781 89.453125 194.753906 89.71875 C 196.605469 89.804688 198.054688 90.023438 199.023438 90.148438 C 199.382812 90.191406 199.65625 90.226562 199.882812 90.257812 C 199.621094 90.667969 199.351562 91.082031 199.082031 91.496094 L 199.085938 91.480469 C 199.085938 91.480469 198.5625 91.332031 197.546875 91.039062 C 196.515625 90.757812 194.882812 90.421875 192.816406 90.191406 C 188.664062 89.804688 182.414062 89.953125 174.96875 92.347656 C 171.285156 93.570312 167.234375 95.367188 163.4375 98.167969 C 159.566406 101 155.984375 104.925781 153.570312 109.941406 C 151.160156 114.929688 149.824219 120.800781 149.867188 126.957031 C 149.910156 133.203125 151.464844 139.589844 154.019531 145.773438 C 156.566406 151.980469 160.046875 158.003906 163.980469 163.9375 C 167.851562 169.875 172.195312 175.886719 176.917969 181.777344 C 186.398438 193.5625 197.535156 205.117188 210.304688 215.582031 C 223.058594 226.050781 237.335938 235.550781 252.777344 243.417969 C 268.191406 251.328125 284.773438 257.566406 301.855469 261.8125 C 310.390625 263.917969 319.207031 265.488281 328.132812 265.335938 C 332.582031 265.265625 337.050781 264.730469 341.378906 263.625 C 345.742188 262.496094 349.878906 260.734375 353.695312 258.410156 C 357.492188 256.070312 360.953125 253.152344 363.734375 249.65625 C 366.527344 246.1875 368.628906 242.078125 369.6875 237.8125 C 370.796875 233.464844 370.914062 229.03125 370.378906 224.753906 C 369.847656 220.472656 368.6875 216.359375 367.234375 212.441406 C 365.769531 208.523438 364.003906 204.785156 362.097656 201.191406 C 361.148438 199.386719 360.125 197.644531 359.164062 195.910156 C 358.164062 194.175781 357.117188 192.453125 356.097656 190.746094 C 351.917969 183.992188 347.449219 177.625 342.796875 171.667969 C 333.492188 159.761719 323.460938 149.488281 313.460938 140.910156 C 303.460938 132.324219 293.546875 125.355469 284.394531 119.832031 C 275.222656 114.3125 266.851562 110.164062 259.785156 107.160156 C 252.722656 104.148438 247.023438 102.152344 243.105469 100.914062 C 241.15625 100.261719 239.632812 99.855469 238.617188 99.539062 C 238.515625 99.511719 238.441406 99.488281 238.351562 99.464844 C 238.515625 98.949219 238.691406 98.4375 238.84375 97.921875 C 240.738281 91.597656 241.960938 85.035156 242.21875 78.5 C 242.484375 71.960938 241.722656 65.515625 240.25 59.496094 C 238.789062 53.46875 236.582031 47.851562 233.855469 42.871094 C 231.152344 37.886719 227.964844 33.527344 224.609375 29.902344 C 221.253906 26.277344 217.765625 23.351562 214.417969 21.160156 C 211.085938 18.949219 207.96875 17.367188 205.339844 16.242188 C 202.703125 15.136719 200.566406 14.449219 199.097656 14.03125 C 197.621094 13.625 196.835938 13.417969 196.835938 13.417969 C 196.835938 13.417969 197.605469 13.667969 199.0625 14.140625 C 200.5 14.632812 202.589844 15.445312 205.164062 16.636719 C 207.730469 17.855469 210.746094 19.546875 213.933594 21.859375 C 217.125 24.164062 220.457031 27.136719 223.648438 30.769531 C 226.820312 34.410156 229.808594 38.757812 232.304688 43.6875 C 234.789062 48.621094 236.855469 54.113281 238.175781 59.988281 C 239.507812 65.855469 240.140625 72.089844 239.777344 78.382812 C 239.421875 84.675781 238.132812 91 236.285156 97.15625 C 234.417969 103.320312 231.988281 109.292969 229.257812 115.058594 C 226.566406 120.832031 223.617188 126.367188 220.492188 131.5625 C 217.390625 136.773438 214.171875 141.671875 210.917969 146.179688 C 207.636719 150.667969 204.347656 154.765625 201.1875 158.441406 C 197.972656 162.074219 194.996094 165.378906 192.195312 168.152344 C 190.8125 169.5625 189.5 170.855469 188.246094 172.019531 C 187.015625 173.195312 185.871094 174.273438 184.8125 175.199219 C 182.730469 177.09375 181.035156 178.558594 179.863281 179.539062 C 179.746094 179.636719 179.660156 179.707031 179.554688 179.796875 C 179.53125 179.769531 179.503906 179.738281 179.480469 179.707031 C 178.066406 177.960938 176.703125 176.210938 175.367188 174.457031 C 175.714844 174.203125 176.117188 173.90625 176.582031 173.5625 C 177.402344 172.957031 178.402344 172.21875 179.550781 171.371094 C 180.128906 170.949219 180.738281 170.5 181.382812 170.023438 C 182 169.492188 182.648438 168.929688 183.320312 168.34375 C 184.671875 167.171875 186.132812 165.902344 187.679688 164.5625 C 188.46875 163.914062 189.1875 163.152344 189.9375 162.398438 C 190.6875 161.636719 191.453125 160.863281 192.230469 160.074219 C 193.785156 158.492188 195.433594 156.910156 196.886719 155.09375 C 198.390625 153.328125 199.921875 151.535156 201.453125 149.742188 C 202.851562 147.847656 204.25 145.953125 205.628906 144.089844 C 207.054688 142.265625 208.222656 140.304688 209.40625 138.445312 C 210.554688 136.566406 211.796875 134.828125 212.734375 133.035156 C 213.6875 131.257812 214.585938 129.578125 215.417969 128.023438 C 215.835938 127.246094 216.234375 126.507812 216.613281 125.800781 C 216.933594 125.066406 217.242188 124.371094 217.535156 123.71875 C 218.113281 122.410156 218.617188 121.269531 219.03125 120.335938 C 219.863281 118.460938 220.335938 117.394531 220.335938 117.394531 C 220.335938 117.394531 219.816406 118.441406 218.902344 120.273438 C 218.449219 121.195312 217.898438 122.308594 217.257812 123.585938 C 216.941406 124.21875 216.605469 124.898438 216.253906 125.613281 C 215.839844 126.300781 215.414062 127.027344 214.96875 127.777344 C 214.070312 129.285156 213.101562 130.914062 212.074219 132.640625 C 211.070312 134.378906 209.757812 136.046875 208.539062 137.863281 C 207.285156 139.65625 206.046875 141.539062 204.550781 143.28125 C 203.105469 145.066406 201.648438 146.878906 200.183594 148.6875 C 198.597656 150.390625 197.011719 152.09375 195.453125 153.765625 C 193.945312 155.484375 192.25 156.976562 190.65625 158.457031 C 189.863281 159.195312 189.078125 159.925781 188.3125 160.632812 C 187.539062 161.34375 186.804688 162.058594 186.011719 162.648438 C 184.464844 163.878906 183 165.042969 181.652344 166.117188 C 180.980469 166.652344 180.332031 167.164062 179.71875 167.652344 C 179.054688 168.097656 178.429688 168.519531 177.832031 168.917969 C 176.648438 169.710938 175.617188 170.40625 174.765625 170.976562 C 174.25 171.324219 173.804688 171.621094 173.429688 171.871094 C 171.050781 168.652344 168.785156 165.425781 166.644531 162.183594 C 166.3125 161.679688 165.992188 161.1875 165.664062 160.691406 C 166.316406 160.195312 167.4375 159.34375 168.976562 158.183594 C 170.238281 157.257812 171.738281 156.035156 173.445312 154.605469 C 174.300781 153.902344 175.210938 153.152344 176.167969 152.359375 C 177.09375 151.53125 178.066406 150.664062 179.082031 149.753906 C 180.082031 148.835938 181.160156 147.914062 182.214844 146.898438 C 183.265625 145.875 184.347656 144.8125 185.460938 143.726562 C 186.59375 142.660156 187.695312 141.5 188.804688 140.296875 C 189.921875 139.101562 191.085938 137.90625 192.222656 136.644531 C 194.4375 134.070312 196.789062 131.472656 198.964844 128.648438 C 201.234375 125.898438 203.3125 122.929688 205.464844 120.023438 C 207.464844 117.011719 209.550781 114.058594 211.351562 110.988281 C 213.265625 107.984375 214.914062 104.894531 216.570312 101.941406 C 217.367188 100.449219 218.097656 98.953125 218.835938 97.496094 C 219.582031 96.050781 220.289062 94.625 220.90625 93.203125 C 221.550781 91.785156 222.171875 90.414062 222.773438 89.085938 C 223.367188 87.75 223.859375 86.433594 224.375 85.179688 C 224.875 83.925781 225.359375 82.722656 225.820312 81.582031 C 226.230469 80.414062 226.621094 79.3125 226.988281 78.28125 C 227.738281 76.210938 228.367188 74.402344 228.800781 72.886719 C 229.726562 69.871094 230.257812 68.152344 230.257812 68.152344 C 230.257812 68.152344 229.6875 69.863281 228.683594 72.84375 C 228.214844 74.351562 227.539062 76.144531 226.738281 78.1875 C 226.347656 79.210938 225.933594 80.296875 225.488281 81.449219 C 225.003906 82.578125 224.492188 83.765625 223.964844 85.007812 C 223.417969 86.238281 222.890625 87.546875 222.269531 88.859375 C 221.636719 90.167969 220.980469 91.519531 220.304688 92.914062 C 219.65625 94.316406 218.917969 95.714844 218.136719 97.140625 C 217.363281 98.566406 216.605469 100.035156 215.773438 101.503906 C 214.050781 104.398438 212.339844 107.425781 210.367188 110.359375 C 208.5 113.363281 206.355469 116.25 204.296875 119.179688 C 202.089844 122.015625 199.964844 124.902344 197.648438 127.5625 C 195.421875 130.308594 193.03125 132.824219 190.78125 135.3125 C 189.628906 136.535156 188.445312 137.6875 187.316406 138.84375 C 186.1875 139.996094 185.066406 141.109375 183.921875 142.144531 C 182.800781 143.191406 181.703125 144.207031 180.648438 145.191406 C 179.578125 146.167969 178.496094 147.050781 177.480469 147.929688 C 176.460938 148.796875 175.484375 149.632812 174.550781 150.417969 C 173.597656 151.175781 172.6875 151.882812 171.835938 152.554688 C 170.144531 153.902344 168.644531 155.0625 167.34375 155.964844 C 165.886719 157.007812 164.800781 157.789062 164.128906 158.28125 C 162.265625 155.304688 160.550781 152.339844 159.03125 149.355469 C 172.894531 137.550781 184.683594 125.53125 196.167969 111.25 C 208.082031 96.425781 216.699219 78.847656 218.742188 59.925781 C 219.882812 49.382812 218.503906 39.652344 213.152344 30.5 C 209.929688 24.972656 205.949219 20.34375 200.996094 17.269531 C 178.371094 1.347656 115.613281 16.332031 68.257812 59.148438 C 40.457031 84.289062 7.152344 120.738281 6.367188 151.664062 C 6.089844 162.4375 9.824219 171.78125 17.464844 179.425781 C 23.609375 185.582031 34.523438 188.53125 47.957031 188.53125 C 68.839844 188.53125 95.792969 181.390625 120.347656 168.121094 L 120.574219 169.3125 C 120.925781 171.121094 121.257812 172.949219 121.640625 174.769531 C 122.109375 176.546875 122.578125 178.328125 123.050781 180.128906 C 123.539062 181.914062 124.164062 183.667969 124.722656 185.453125 L 125.148438 186.792969 L 125.261719 187.125 L 125.390625 187.488281 L 125.632812 188.140625 L 126.605469 190.757812 L 127.578125 193.382812 C 127.917969 194.261719 128.3125 195.140625 128.679688 196.023438 C 129.441406 197.777344 130.132812 199.585938 130.984375 201.300781 C 132.496094 204.585938 134.144531 207.839844 135.90625 211.0625 C 135.546875 211.179688 135.140625 211.324219 134.613281 211.496094 C 133.046875 212.027344 130.746094 212.804688 127.800781 213.734375 C 124.867188 214.6875 121.261719 215.707031 117.132812 216.878906 C 112.996094 218.019531 108.304688 219.210938 103.144531 220.28125 C 97.980469 221.324219 92.371094 222.382812 86.390625 223.078125 C 84.894531 223.25 83.378906 223.378906 81.84375 223.535156 C 80.308594 223.636719 78.753906 223.742188 77.179688 223.847656 C 75.613281 223.878906 74.058594 223.957031 72.441406 223.960938 C 70.839844 223.933594 69.101562 223.957031 67.5625 223.882812 C 61.0625 223.664062 54.359375 222.664062 47.777344 220.820312 C 41.203125 218.96875 34.753906 216.238281 28.882812 212.558594 C 23.019531 208.875 17.765625 204.222656 13.65625 198.800781 C 9.5625 193.371094 6.566406 187.253906 4.753906 180.980469 C 2.949219 174.703125 2.21875 168.347656 2.289062 162.335938 C 2.371094 156.332031 3.296875 150.632812 4.574219 145.53125 C 7.183594 135.273438 11.347656 127.339844 14.472656 122.023438 C 16.035156 119.34375 17.402344 117.320312 18.332031 115.941406 C 19.28125 114.578125 19.789062 113.855469 19.789062 113.855469 C 19.789062 113.855469 19.25 114.558594 18.238281 115.875 C 17.242188 117.214844 15.789062 119.175781 14.105469 121.792969 C 10.769531 127.015625 6.296875 134.839844 3.265625 145.171875 C 1.75 150.335938 0.707031 156.082031 0.449219 162.285156 C 0.21875 168.460938 0.800781 175.035156 2.515625 181.601562 C 4.238281 188.152344 7.167969 194.691406 11.402344 200.484375 C 15.65625 206.265625 21.117188 211.242188 27.207031 215.191406 C 33.304688 219.136719 40 222.085938 46.828125 224.117188 C 53.660156 226.136719 60.625 227.285156 67.40625 227.613281 C 69.1875 227.726562 70.746094 227.667969 72.40625 227.699219 C 74.054688 227.6875 75.726562 227.609375 77.359375 227.5625 C 78.976562 227.449219 80.578125 227.34375 82.160156 227.230469 C 83.738281 227.066406 85.292969 226.929688 86.824219 226.746094 C 92.945312 225.988281 98.691406 224.996094 103.90625 223.730469 C 109.125 222.496094 113.855469 221.160156 118.015625 219.894531 C 122.175781 218.621094 125.734375 217.324219 128.664062 216.246094 C 131.589844 215.152344 133.867188 214.269531 135.40625 213.609375 C 136.074219 213.332031 136.578125 213.121094 136.96875 212.957031 C 142.480469 222.730469 149.082031 232.132812 156.664062 240.882812 C 167.304688 253.003906 179.800781 263.777344 193.761719 272.488281 C 197.246094 274.550781 200.65625 276.6875 204.199219 278.6875 L 209.546875 281.664062 L 212.21875 283.136719 L 214.9375 284.511719 L 220.367188 287.246094 C 222.167969 288.164062 224.039062 288.945312 225.871094 289.800781 C 227.714844 290.628906 229.535156 291.492188 231.386719 292.289062 C 233.253906 293.039062 235.121094 293.789062 236.984375 294.539062 C 244.421875 297.558594 252.023438 299.992188 259.59375 302.136719 C 261.484375 302.703125 263.410156 303.074219 265.308594 303.550781 C 267.234375 304.003906 269.144531 304.460938 271.054688 304.910156 C 274.855469 305.558594 278.570312 306.320312 282.472656 306.644531 C 286.320312 307.175781 290.125 307.199219 293.898438 307.398438 C 295.789062 307.363281 297.664062 307.324219 299.539062 307.289062 C 300.472656 307.257812 301.40625 307.273438 302.332031 307.203125 C 303.257812 307.117188 304.1875 307.03125 305.105469 306.949219 C 312.5 306.46875 319.632812 304.847656 326.378906 302.769531 C 328.046875 302.175781 329.699219 301.589844 331.347656 301.007812 L 331.960938 300.789062 L 332.113281 300.730469 L 332.296875 300.648438 L 332.59375 300.523438 L 333.761719 300 C 334.535156 299.644531 335.308594 299.347656 336.089844 298.929688 C 339.246094 297.402344 342.101562 295.617188 344.875 293.753906 C 350.300781 289.882812 355.066406 285.476562 358.929688 280.667969 C 362.808594 275.875 365.960938 270.824219 368.246094 265.6875 C 370.5625 260.554688 372.046875 255.445312 372.949219 250.523438 C 374.726562 240.683594 374.152344 231.882812 372.816406 224.90625 " fill-opacity="1" fill-rule="nonzero"/></g><path fill="#100f0d" d="M 300.292969 289.542969 C 296.40625 289.324219 292.03125 288.894531 287.292969 288.265625 C 282.546875 287.640625 277.453125 286.6875 272.105469 285.527344 C 266.757812 284.363281 261.183594 282.84375 255.488281 281.078125 C 249.785156 279.328125 243.992188 277.207031 238.214844 274.816406 C 232.4375 272.433594 226.664062 269.714844 221.136719 266.691406 C 218.304688 265.140625 215.652344 263.511719 212.90625 261.898438 C 210.25 260.191406 207.570312 258.527344 205.03125 256.707031 C 199.902344 253.136719 194.996094 249.410156 190.453125 245.542969 C 185.886719 241.707031 181.660156 237.773438 177.769531 233.917969 C 176.800781 232.945312 175.847656 231.984375 174.914062 231.039062 C 174 230.070312 173.109375 229.109375 172.226562 228.167969 C 170.425781 226.316406 168.804688 224.421875 167.199219 222.640625 C 165.613281 220.847656 164.167969 219.0625 162.75 217.394531 C 161.375 215.691406 160.070312 214.074219 158.847656 212.558594 C 156.480469 209.453125 154.410156 206.746094 152.792969 204.457031 C 151.128906 202.195312 149.890625 200.355469 149.027344 199.121094 C 148.167969 197.882812 147.710938 197.21875 147.710938 197.21875 C 147.710938 197.21875 148.097656 197.925781 148.828125 199.246094 C 149.5625 200.558594 150.578125 202.527344 152.066406 204.925781 C 153.492188 207.363281 155.332031 210.253906 157.511719 213.53125 C 158.632812 215.148438 159.832031 216.863281 161.09375 218.679688 C 162.429688 220.4375 163.792969 222.320312 165.292969 224.222656 C 168.300781 228.027344 171.636719 232.097656 175.46875 236.144531 C 177.328125 238.222656 179.382812 240.203125 181.421875 242.308594 C 183.5625 244.300781 185.695312 246.40625 188.003906 248.382812 C 190.253906 250.429688 192.664062 252.378906 195.078125 254.371094 C 197.554688 256.285156 200.054688 258.242188 202.699219 260.050781 C 205.285156 261.929688 208.007812 263.65625 210.71875 265.429688 C 213.472656 267.089844 216.289062 268.824219 219.121094 270.328125 C 224.886719 273.429688 230.769531 276.140625 236.703125 278.542969 C 242.648438 280.886719 248.605469 282.894531 254.453125 284.558594 C 260.289062 286.25 266.035156 287.507812 271.507812 288.515625 C 276.976562 289.535156 282.207031 290.175781 287.039062 290.585938 C 291.875 291.003906 296.324219 291.117188 300.257812 291.09375 C 304.195312 291.070312 307.621094 290.816406 310.429688 290.570312 C 313.238281 290.316406 315.429688 289.976562 316.921875 289.75 C 318.40625 289.503906 319.199219 289.371094 319.199219 289.371094 C 319.199219 289.371094 318.398438 289.425781 316.894531 289.535156 C 315.394531 289.636719 313.1875 289.71875 310.382812 289.769531 C 307.582031 289.800781 304.1875 289.753906 300.292969 289.542969 " fill-opacity="1" fill-rule="nonzero"/><path fill="#100f0d" d="M 128.039062 146.746094 C 128.527344 144.589844 128.882812 142.402344 129.492188 140.3125 C 129.984375 138.1875 130.726562 136.175781 131.347656 134.199219 C 131.726562 133.234375 132.09375 132.277344 132.460938 131.347656 C 132.632812 130.882812 132.8125 130.425781 132.984375 129.96875 C 133.183594 129.519531 133.378906 129.082031 133.574219 128.640625 C 133.957031 127.773438 134.332031 126.925781 134.695312 126.109375 C 135.101562 125.304688 135.496094 124.535156 135.875 123.792969 C 136.609375 122.296875 137.375 120.984375 138.046875 119.808594 C 138.707031 118.625 139.3125 117.609375 139.863281 116.800781 C 140.914062 115.152344 141.511719 114.210938 141.511719 114.210938 C 141.511719 114.210938 140.828125 115.089844 139.625 116.632812 C 139.011719 117.394531 138.328125 118.359375 137.578125 119.503906 C 137.195312 120.070312 136.785156 120.671875 136.359375 121.304688 C 135.941406 121.957031 135.5625 122.664062 135.132812 123.390625 C 134.71875 124.121094 134.285156 124.882812 133.839844 125.675781 C 133.429688 126.484375 133.011719 127.324219 132.578125 128.1875 C 131.65625 129.886719 130.980469 131.824219 130.164062 133.765625 C 129.496094 135.761719 128.714844 137.804688 128.175781 139.957031 C 127.527344 142.078125 127.105469 144.292969 126.664062 146.5 C 126.363281 148.730469 125.984375 150.953125 125.875 153.171875 C 125.644531 155.378906 125.675781 157.558594 125.625 159.667969 C 125.644531 160.722656 125.730469 161.757812 125.777344 162.773438 C 125.808594 163.273438 125.832031 163.78125 125.863281 164.269531 C 125.917969 164.765625 125.976562 165.253906 126.03125 165.730469 C 126.144531 166.691406 126.257812 167.621094 126.359375 168.519531 C 126.496094 169.421875 126.667969 170.285156 126.8125 171.109375 C 127.0625 172.777344 127.460938 174.269531 127.808594 175.585938 C 128.128906 176.914062 128.445312 178.058594 128.773438 178.984375 C 129.390625 180.835938 129.742188 181.898438 129.742188 181.898438 C 129.742188 181.898438 129.480469 180.8125 129.027344 178.910156 C 128.765625 177.976562 128.527344 176.816406 128.296875 175.480469 C 128.167969 174.816406 128.042969 174.105469 127.898438 173.355469 C 127.773438 172.609375 127.695312 171.8125 127.574219 170.988281 C 127.464844 170.160156 127.328125 169.308594 127.230469 168.414062 C 127.164062 167.519531 127.09375 166.59375 127.023438 165.644531 C 126.816406 163.75 126.917969 161.738281 126.84375 159.664062 C 126.917969 157.59375 126.914062 155.445312 127.175781 153.285156 C 127.3125 151.109375 127.714844 148.929688 128.039062 146.746094 " fill-opacity="1" fill-rule="nonzero"/><path fill="#100f0d" d="M 362.9375 254.4375 C 362.734375 254.664062 362.535156 254.902344 362.316406 255.128906 C 359.308594 258.398438 354.867188 261.675781 349.148438 264.011719 C 343.429688 266.382812 336.472656 267.691406 328.882812 267.796875 C 321.277344 267.917969 313.054688 266.734375 304.558594 264.671875 C 296.074219 262.558594 287.210938 259.839844 278.277344 256.464844 C 269.324219 253.136719 260.269531 249.175781 251.34375 244.59375 C 242.433594 239.996094 233.648438 234.804688 225.222656 229.078125 C 216.796875 223.351562 208.734375 217.09375 201.136719 210.554688 C 193.535156 204.019531 186.472656 197.089844 180.039062 190.03125 C 176.804688 186.511719 173.78125 182.917969 170.863281 179.367188 C 168.015625 175.800781 165.214844 172.1875 162.648438 168.679688 C 157.496094 161.613281 153.175781 154.519531 150.363281 147.460938 C 147.542969 140.410156 146.25 133.457031 146.460938 127.296875 C 146.625 121.128906 148.117188 115.824219 150 111.808594 C 151.882812 107.773438 154.144531 105.023438 155.792969 103.300781 C 156.632812 102.445312 157.3125 101.828125 157.785156 101.429688 C 158.265625 101.039062 158.511719 100.832031 158.511719 100.832031 C 158.511719 100.832031 158.253906 101.027344 157.761719 101.398438 C 157.265625 101.773438 156.558594 102.359375 155.667969 103.175781 C 153.941406 104.832031 151.511719 107.5 149.46875 111.554688 C 147.417969 115.570312 145.707031 120.921875 145.324219 127.246094 C 144.851562 133.578125 146.082031 140.792969 148.816406 148.0625 C 151.546875 155.363281 155.808594 162.6875 160.875 169.945312 C 165.925781 177.195312 171.785156 184.5 178.226562 191.675781 C 184.679688 198.855469 191.761719 205.898438 199.398438 212.5625 C 204.597656 217.152344 210.105469 221.5 215.789062 225.640625 C 215.714844 225.59375 215.636719 225.542969 215.558594 225.496094 C 232.660156 238.554688 247.753906 249.382812 267.378906 258.191406 C 287.007812 266.996094 308.308594 272.90625 329.816406 272.777344 C 338.933594 272.722656 348.847656 270.730469 356.820312 266.292969 C 364.75 261.875 369.476562 252.332031 369.554688 243.242188 C 369.554688 243.238281 369.5625 243.226562 369.5625 243.226562 C 369.5625 243.226562 369.554688 243.238281 369.554688 243.238281 C 369.554688 243.199219 369.5625 243.152344 369.5625 243.105469 C 367.898438 247.167969 365.683594 251.042969 362.9375 254.4375 " fill-opacity="1" fill-rule="nonzero"/><path fill="#100f0d" d="M 256.867188 150.335938 C 259.136719 151.882812 261.710938 153.601562 264.527344 155.460938 C 267.320312 157.359375 270.269531 159.527344 273.421875 161.757812 C 275.023438 162.847656 276.546875 164.125 278.171875 165.34375 C 279.777344 166.574219 281.425781 167.835938 283.097656 169.113281 C 286.394531 171.734375 289.65625 174.625 293.042969 177.464844 C 294.636719 178.992188 296.246094 180.535156 297.859375 182.078125 C 299.441406 183.660156 301.191406 185.085938 302.65625 186.789062 C 304.1875 188.433594 305.710938 190.078125 307.230469 191.71875 C 307.980469 192.546875 308.765625 193.335938 309.480469 194.183594 C 310.175781 195.054688 310.863281 195.921875 311.554688 196.785156 C 312.929688 198.515625 314.296875 200.226562 315.644531 201.917969 C 317.011719 203.574219 318.191406 205.402344 319.445312 207.097656 C 321.875 210.550781 324.175781 213.890625 326.199219 217.1875 C 327.273438 218.796875 328.160156 220.449219 329.074219 222.023438 C 329.523438 222.8125 329.964844 223.585938 330.398438 224.347656 C 330.792969 225.128906 331.179688 225.902344 331.558594 226.652344 C 333.140625 229.628906 334.332031 232.480469 335.425781 234.992188 C 336.429688 237.542969 337.164062 239.820312 337.828125 241.679688 C 338.851562 245.484375 339.433594 247.664062 339.433594 247.664062 C 339.433594 247.664062 338.960938 245.457031 338.128906 241.589844 C 337.542969 239.707031 336.894531 237.382812 335.984375 234.78125 C 334.976562 232.214844 333.929688 229.273438 332.390625 226.238281 C 332.027344 225.472656 331.65625 224.6875 331.277344 223.890625 C 330.859375 223.113281 330.429688 222.320312 329.996094 221.511719 C 329.117188 219.90625 328.257812 218.214844 327.226562 216.5625 C 325.257812 213.210938 323.039062 209.738281 320.640625 206.25 C 319.390625 204.535156 318.257812 202.730469 316.863281 201.015625 C 315.515625 199.292969 314.148438 197.550781 312.773438 195.792969 C 312.082031 194.914062 311.394531 194.03125 310.699219 193.148438 C 309.988281 192.28125 309.195312 191.476562 308.445312 190.632812 C 306.921875 188.96875 305.394531 187.292969 303.863281 185.617188 C 302.386719 183.898438 300.664062 182.414062 299.042969 180.847656 C 297.394531 179.304688 295.757812 177.761719 294.136719 176.238281 C 290.695312 173.40625 287.386719 170.523438 284.039062 167.914062 C 280.628906 165.398438 277.417969 162.839844 274.1875 160.683594 C 270.957031 158.53125 267.9375 156.445312 265.085938 154.613281 C 262.210938 152.820312 259.574219 151.179688 257.222656 149.753906 C 254.882812 148.320312 252.773438 147.167969 251.074219 146.167969 C 247.644531 144.214844 245.683594 143.101562 245.683594 143.101562 C 245.683594 143.101562 247.574219 144.328125 250.890625 146.472656 C 252.542969 147.546875 254.59375 148.792969 256.867188 150.335938 " fill-opacity="1" fill-rule="nonzero"/><g fill="#000000" fill-opacity="1"><g transform="translate(93.086248, 337.199978)"><g><path d="M 21.90625 -18.734375 C 23.09375 -18.734375 23.90625 -18.585938 24.34375 -18.296875 C 24.78125 -18.003906 25 -17.625 25 -17.15625 C 25 -16.863281 24.90625 -16.660156 24.71875 -16.546875 C 24.539062 -16.429688 24.375 -16.535156 24.21875 -16.859375 C 24.164062 -16.984375 24.078125 -17.097656 23.953125 -17.203125 C 23.828125 -17.316406 23.632812 -17.410156 23.375 -17.484375 C 23.113281 -17.554688 22.726562 -17.59375 22.21875 -17.59375 C 20.59375 -17.59375 18.804688 -17.488281 16.859375 -17.28125 C 14.910156 -17.082031 12.976562 -16.816406 11.0625 -16.484375 C 10.445312 -15.285156 9.878906 -13.957031 9.359375 -12.5 C 8.847656 -11.039062 8.378906 -9.546875 7.953125 -8.015625 C 7.523438 -6.484375 7.148438 -4.976562 6.828125 -3.5 C 6.503906 -2.03125 6.226562 -0.671875 6 0.578125 C 5.769531 1.828125 5.597656 2.898438 5.484375 3.796875 C 5.367188 4.703125 5.3125 5.347656 5.3125 5.734375 C 5.3125 6.191406 5.351562 6.546875 5.4375 6.796875 C 5.53125 7.054688 5.613281 7.238281 5.6875 7.34375 C 5.769531 7.457031 5.785156 7.554688 5.734375 7.640625 C 5.703125 7.691406 5.601562 7.71875 5.4375 7.71875 C 5.28125 7.71875 5.097656 7.6875 4.890625 7.625 C 4.691406 7.570312 4.519531 7.488281 4.375 7.375 C 4.226562 7.257812 4.148438 7.113281 4.140625 6.9375 C 4.097656 6.21875 4.132812 5.3125 4.25 4.21875 C 4.375 3.132812 4.5625 1.925781 4.8125 0.59375 C 5.0625 -0.738281 5.359375 -2.132812 5.703125 -3.59375 C 6.046875 -5.0625 6.421875 -6.535156 6.828125 -8.015625 C 7.234375 -9.492188 7.648438 -10.925781 8.078125 -12.3125 C 8.515625 -13.707031 8.945312 -14.988281 9.375 -16.15625 C 8 -15.894531 6.695312 -15.613281 5.46875 -15.3125 C 4.25 -15.007812 3.15625 -14.707031 2.1875 -14.40625 C 1.21875 -14.101562 0.441406 -13.816406 -0.140625 -13.546875 C -0.296875 -13.460938 -0.40625 -13.492188 -0.46875 -13.640625 C -0.539062 -13.785156 -0.570312 -13.972656 -0.5625 -14.203125 C -0.550781 -14.441406 -0.503906 -14.65625 -0.421875 -14.84375 C -0.335938 -15.039062 -0.222656 -15.15625 -0.078125 -15.1875 C 0.484375 -15.394531 1.269531 -15.613281 2.28125 -15.84375 C 3.300781 -16.082031 4.460938 -16.320312 5.765625 -16.5625 C 7.066406 -16.8125 8.414062 -17.050781 9.8125 -17.28125 C 10.46875 -18.988281 11.070312 -20.226562 11.625 -21 C 11.675781 -21.0625 11.796875 -21.066406 11.984375 -21.015625 C 12.171875 -20.972656 12.382812 -20.894531 12.625 -20.78125 C 12.863281 -20.675781 13.082031 -20.550781 13.28125 -20.40625 C 13.488281 -20.269531 13.644531 -20.144531 13.75 -20.03125 C 13.851562 -19.914062 13.859375 -19.84375 13.765625 -19.8125 C 13.503906 -19.726562 13.25 -19.59375 13 -19.40625 C 12.757812 -19.21875 12.46875 -18.851562 12.125 -18.3125 C 12.039062 -18.195312 11.960938 -18.078125 11.890625 -17.953125 C 11.816406 -17.828125 11.738281 -17.695312 11.65625 -17.5625 C 12.757812 -17.726562 13.835938 -17.878906 14.890625 -18.015625 C 15.953125 -18.160156 16.941406 -18.285156 17.859375 -18.390625 C 18.773438 -18.503906 19.578125 -18.585938 20.265625 -18.640625 C 20.960938 -18.703125 21.507812 -18.734375 21.90625 -18.734375 Z M 21.90625 -18.734375 "/></g></g></g><g fill="#000000" fill-opacity="1"><g transform="translate(105.081521, 337.199978)"><g><path d="M 11.015625 -6.265625 C 11.054688 -6.328125 11.128906 -6.347656 11.234375 -6.328125 C 11.347656 -6.304688 11.441406 -6.257812 11.515625 -6.1875 C 11.585938 -6.113281 11.585938 -6.035156 11.515625 -5.953125 C 11.273438 -5.617188 10.941406 -5.234375 10.515625 -4.796875 C 10.085938 -4.359375 9.582031 -3.914062 9 -3.46875 C 8.425781 -3.03125 7.789062 -2.65625 7.09375 -2.34375 C 6.394531 -2.03125 5.648438 -1.835938 4.859375 -1.765625 C 4.535156 -1.171875 4.191406 -0.628906 3.828125 -0.140625 C 3.472656 0.335938 3.125 0.71875 2.78125 1 C 2.4375 1.28125 2.113281 1.421875 1.8125 1.421875 C 1.519531 1.421875 1.25 1.320312 1 1.125 C 0.75 0.9375 0.546875 0.703125 0.390625 0.421875 C 0.234375 0.140625 0.15625 -0.132812 0.15625 -0.40625 C 0.175781 -0.789062 0.222656 -1.1875 0.296875 -1.59375 C 0.378906 -2 0.488281 -2.398438 0.625 -2.796875 C 0.257812 -3.085938 0 -3.414062 -0.15625 -3.78125 C -0.320312 -4.15625 -0.40625 -4.53125 -0.40625 -4.90625 C -0.40625 -5.582031 -0.253906 -6.195312 0.046875 -6.75 C 0.347656 -7.300781 0.738281 -7.773438 1.21875 -8.171875 C 1.695312 -8.578125 2.21875 -8.882812 2.78125 -9.09375 C 3.34375 -9.3125 3.890625 -9.421875 4.421875 -9.421875 C 5.003906 -9.421875 5.507812 -9.226562 5.9375 -8.84375 C 6.363281 -8.46875 6.578125 -7.972656 6.578125 -7.359375 C 6.578125 -6.640625 6.4375 -5.816406 6.15625 -4.890625 C 5.875 -3.972656 5.519531 -3.082031 5.09375 -2.21875 C 5.75 -2.3125 6.441406 -2.515625 7.171875 -2.828125 C 7.898438 -3.148438 8.597656 -3.59375 9.265625 -4.15625 C 9.941406 -4.726562 10.523438 -5.429688 11.015625 -6.265625 Z M 0.703125 -4.4375 C 0.703125 -4.113281 0.769531 -3.820312 0.90625 -3.5625 C 1.15625 -4.144531 1.421875 -4.675781 1.703125 -5.15625 C 1.992188 -5.632812 2.269531 -6.015625 2.53125 -6.296875 C 2.800781 -6.585938 3.007812 -6.734375 3.15625 -6.734375 C 3.519531 -6.734375 3.78125 -6.617188 3.9375 -6.390625 C 4.101562 -6.171875 4.140625 -5.976562 4.046875 -5.8125 C 3.785156 -5.351562 3.507812 -4.820312 3.21875 -4.21875 C 2.9375 -3.613281 2.675781 -3.019531 2.4375 -2.4375 C 2.707031 -2.351562 3.003906 -2.289062 3.328125 -2.25 C 3.648438 -2.207031 4.015625 -2.1875 4.421875 -2.1875 L 4.546875 -2.1875 C 4.972656 -3.007812 5.328125 -3.898438 5.609375 -4.859375 C 5.898438 -5.816406 6.046875 -6.738281 6.046875 -7.625 C 6.046875 -8.03125 5.929688 -8.351562 5.703125 -8.59375 C 5.484375 -8.832031 5.203125 -8.953125 4.859375 -8.953125 C 4.390625 -8.953125 3.945312 -8.832031 3.53125 -8.59375 C 3.113281 -8.351562 2.726562 -8.046875 2.375 -7.671875 C 2.03125 -7.304688 1.726562 -6.910156 1.46875 -6.484375 C 1.21875 -6.066406 1.023438 -5.675781 0.890625 -5.3125 C 0.765625 -4.945312 0.703125 -4.65625 0.703125 -4.4375 Z M 1.8125 0.921875 C 2.132812 0.921875 2.523438 0.671875 2.984375 0.171875 C 3.453125 -0.328125 3.894531 -0.960938 4.3125 -1.734375 L 4.28125 -1.734375 C 3.488281 -1.734375 2.816406 -1.816406 2.265625 -1.984375 C 2.054688 -1.460938 1.882812 -0.976562 1.75 -0.53125 C 1.625 -0.09375 1.5625 0.253906 1.5625 0.515625 C 1.5625 0.785156 1.644531 0.921875 1.8125 0.921875 Z M 1.8125 0.921875 "/></g></g></g><g fill="#000000" fill-opacity="1"><g transform="translate(113.858063, 337.199978)"><g><path d="M 0.5625 5 C 0.4375 5 0.25 4.953125 0 4.859375 C -0.238281 4.773438 -0.460938 4.597656 -0.671875 4.328125 C -0.878906 4.066406 -0.984375 3.65625 -0.984375 3.09375 C -0.984375 2.707031 -0.898438 2.171875 -0.734375 1.484375 C -0.566406 0.796875 -0.34375 0.0351562 -0.0625 -0.796875 C 0.207031 -1.640625 0.5 -2.5 0.8125 -3.375 C 1.132812 -4.257812 1.453125 -5.097656 1.765625 -5.890625 C 2.078125 -6.679688 2.347656 -7.367188 2.578125 -7.953125 C 2.617188 -8.046875 2.617188 -8.140625 2.578125 -8.234375 L 2.5625 -8.28125 C 2.507812 -8.382812 2.503906 -8.484375 2.546875 -8.578125 C 2.617188 -8.773438 2.738281 -9.035156 2.90625 -9.359375 C 3.070312 -9.691406 3.234375 -9.992188 3.390625 -10.265625 C 3.554688 -10.546875 3.679688 -10.695312 3.765625 -10.71875 C 3.859375 -10.75 3.992188 -10.71875 4.171875 -10.625 C 4.359375 -10.539062 4.519531 -10.425781 4.65625 -10.28125 C 4.800781 -10.144531 4.84375 -10 4.78125 -9.84375 C 4.644531 -9.550781 4.445312 -9.082031 4.1875 -8.4375 C 3.925781 -7.800781 3.632812 -7.054688 3.3125 -6.203125 C 3 -5.359375 2.671875 -4.46875 2.328125 -3.53125 C 1.984375 -2.601562 1.660156 -1.695312 1.359375 -0.8125 C 1.066406 0.0703125 0.8125 0.875 0.59375 1.59375 C 0.375 2.320312 0.222656 2.898438 0.140625 3.328125 C 0.0546875 3.765625 0.078125 3.984375 0.203125 3.984375 C 0.304688 3.984375 0.484375 3.796875 0.734375 3.421875 C 0.992188 3.046875 1.304688 2.535156 1.671875 1.890625 C 2.046875 1.253906 2.457031 0.535156 2.90625 -0.265625 C 3.363281 -1.078125 3.832031 -1.910156 4.3125 -2.765625 C 4.800781 -3.617188 5.285156 -4.441406 5.765625 -5.234375 C 6.253906 -6.035156 6.710938 -6.757812 7.140625 -7.40625 C 7.578125 -8.050781 7.972656 -8.5625 8.328125 -8.9375 C 8.691406 -9.320312 8.988281 -9.515625 9.21875 -9.515625 C 9.550781 -9.515625 9.796875 -9.4375 9.953125 -9.28125 C 10.109375 -9.132812 10.207031 -8.953125 10.25 -8.734375 C 10.289062 -8.523438 10.3125 -8.328125 10.3125 -8.140625 C 10.3125 -7.910156 10.257812 -7.566406 10.15625 -7.109375 C 10.0625 -6.660156 9.941406 -6.15625 9.796875 -5.59375 C 9.648438 -5.039062 9.492188 -4.476562 9.328125 -3.90625 C 9.171875 -3.332031 9.023438 -2.800781 8.890625 -2.3125 C 8.765625 -1.832031 8.675781 -1.441406 8.625 -1.140625 C 8.570312 -0.847656 8.570312 -0.703125 8.625 -0.703125 C 8.789062 -0.703125 9.007812 -0.847656 9.28125 -1.140625 C 9.550781 -1.441406 9.847656 -1.832031 10.171875 -2.3125 C 10.492188 -2.800781 10.832031 -3.304688 11.1875 -3.828125 C 11.539062 -4.359375 11.890625 -4.863281 12.234375 -5.34375 C 12.585938 -5.820312 12.910156 -6.207031 13.203125 -6.5 C 13.492188 -6.800781 13.742188 -6.953125 13.953125 -6.953125 C 14.378906 -6.953125 14.691406 -6.875 14.890625 -6.71875 C 15.097656 -6.5625 15.226562 -6.375 15.28125 -6.15625 C 15.34375 -5.945312 15.375 -5.757812 15.375 -5.59375 C 15.375 -5.226562 15.332031 -4.796875 15.25 -4.296875 C 15.164062 -3.804688 15.0625 -3.304688 14.9375 -2.796875 C 14.820312 -2.296875 14.71875 -1.828125 14.625 -1.390625 C 14.539062 -0.953125 14.5 -0.597656 14.5 -0.328125 C 14.5 -0.0664062 14.570312 0.0625 14.71875 0.0625 C 14.90625 0.0625 15.195312 -0.0859375 15.59375 -0.390625 C 15.988281 -0.691406 16.457031 -1.109375 17 -1.640625 C 17.539062 -2.179688 18.128906 -2.804688 18.765625 -3.515625 C 19.410156 -4.234375 20.066406 -5.015625 20.734375 -5.859375 C 20.847656 -5.992188 20.953125 -6.003906 21.046875 -5.890625 C 21.148438 -5.785156 21.148438 -5.679688 21.046875 -5.578125 C 21.015625 -5.554688 20.875 -5.382812 20.625 -5.0625 C 20.382812 -4.75 20.070312 -4.359375 19.6875 -3.890625 C 19.3125 -3.421875 18.890625 -2.925781 18.421875 -2.40625 C 17.960938 -1.882812 17.503906 -1.390625 17.046875 -0.921875 C 16.597656 -0.460938 16.175781 -0.09375 15.78125 0.1875 C 15.394531 0.476562 15.066406 0.625 14.796875 0.625 C 14.640625 0.625 14.429688 0.554688 14.171875 0.421875 C 13.921875 0.296875 13.691406 0.117188 13.484375 -0.109375 C 13.285156 -0.335938 13.1875 -0.601562 13.1875 -0.90625 C 13.1875 -1.457031 13.25 -2.050781 13.375 -2.6875 C 13.507812 -3.332031 13.65625 -3.9375 13.8125 -4.5 C 13.976562 -5.0625 14.09375 -5.519531 14.15625 -5.875 C 14.226562 -6.238281 14.203125 -6.421875 14.078125 -6.421875 C 13.992188 -6.421875 13.820312 -6.25 13.5625 -5.90625 C 13.3125 -5.570312 13 -5.132812 12.625 -4.59375 C 12.257812 -4.0625 11.875 -3.492188 11.46875 -2.890625 C 11.0625 -2.285156 10.664062 -1.710938 10.28125 -1.171875 C 9.894531 -0.640625 9.550781 -0.207031 9.25 0.125 C 8.957031 0.46875 8.738281 0.640625 8.59375 0.640625 C 8.425781 0.640625 8.234375 0.566406 8.015625 0.421875 C 7.796875 0.285156 7.601562 0.078125 7.4375 -0.203125 C 7.28125 -0.484375 7.203125 -0.828125 7.203125 -1.234375 C 7.203125 -1.585938 7.257812 -2.007812 7.375 -2.5 C 7.488281 -2.988281 7.628906 -3.507812 7.796875 -4.0625 C 7.972656 -4.625 8.15625 -5.175781 8.34375 -5.71875 C 8.53125 -6.269531 8.691406 -6.765625 8.828125 -7.203125 C 8.972656 -7.640625 9.066406 -7.988281 9.109375 -8.25 C 9.160156 -8.519531 9.140625 -8.65625 9.046875 -8.65625 C 8.921875 -8.65625 8.707031 -8.460938 8.40625 -8.078125 C 8.101562 -7.691406 7.75 -7.171875 7.34375 -6.515625 C 6.9375 -5.867188 6.492188 -5.140625 6.015625 -4.328125 C 5.535156 -3.523438 5.050781 -2.6875 4.5625 -1.8125 C 4.082031 -0.945312 3.609375 -0.113281 3.140625 0.6875 C 2.679688 1.5 2.265625 2.226562 1.890625 2.875 C 1.523438 3.53125 1.222656 4.046875 0.984375 4.421875 C 0.753906 4.804688 0.613281 5 0.5625 5 Z M 0.5625 5 "/></g></g></g><g fill="#000000" fill-opacity="1"><g transform="translate(132.350764, 337.199978)"><g><path d="M 0.34375 7.265625 C 0.34375 7.390625 0.25 7.4375 0.0625 7.40625 C -0.125 7.375 -0.300781 7.296875 -0.46875 7.171875 C -0.644531 7.054688 -0.734375 6.929688 -0.734375 6.796875 C -0.710938 6.273438 -0.625 5.5625 -0.46875 4.65625 C -0.3125 3.75 -0.113281 2.71875 0.125 1.5625 C 0.363281 0.414062 0.632812 -0.789062 0.9375 -2.0625 C 1.25 -3.34375 1.578125 -4.617188 1.921875 -5.890625 C 2.265625 -7.171875 2.613281 -8.382812 2.96875 -9.53125 C 3.332031 -10.6875 3.691406 -11.707031 4.046875 -12.59375 C 4.398438 -13.488281 4.726562 -14.191406 5.03125 -14.703125 C 5.34375 -15.222656 5.625 -15.484375 5.875 -15.484375 C 6.132812 -15.484375 6.394531 -15.398438 6.65625 -15.234375 C 6.925781 -15.078125 7.148438 -14.894531 7.328125 -14.6875 C 7.503906 -14.476562 7.566406 -14.300781 7.515625 -14.15625 C 7.503906 -14.101562 7.398438 -14.09375 7.203125 -14.125 C 7.015625 -14.164062 6.847656 -14.148438 6.703125 -14.078125 C 6.367188 -13.921875 6.050781 -13.617188 5.75 -13.171875 C 5.457031 -12.734375 5.160156 -12.144531 4.859375 -11.40625 C 4.796875 -11.257812 4.644531 -10.875 4.40625 -10.25 C 4.175781 -9.625 3.894531 -8.828125 3.5625 -7.859375 C 3.238281 -6.890625 2.898438 -5.800781 2.546875 -4.59375 C 2.191406 -3.382812 1.851562 -2.109375 1.53125 -0.765625 C 1.21875 0.566406 0.953125 1.914062 0.734375 3.28125 C 0.515625 4.65625 0.382812 5.984375 0.34375 7.265625 Z M 4.484375 0.765625 C 4.296875 0.765625 4.0625 0.679688 3.78125 0.515625 C 3.507812 0.359375 3.269531 0.140625 3.0625 -0.140625 C 2.863281 -0.421875 2.765625 -0.75 2.765625 -1.125 C 2.765625 -1.644531 2.882812 -2.21875 3.125 -2.84375 C 3.363281 -3.476562 3.671875 -4.113281 4.046875 -4.75 C 4.429688 -5.382812 4.832031 -5.960938 5.25 -6.484375 C 5.664062 -7.015625 6.050781 -7.4375 6.40625 -7.75 C 6.769531 -8.070312 7.054688 -8.234375 7.265625 -8.234375 C 7.515625 -8.234375 7.722656 -8.160156 7.890625 -8.015625 C 8.066406 -7.878906 8.1875 -7.738281 8.25 -7.59375 C 8.320312 -7.445312 8.3125 -7.347656 8.21875 -7.296875 C 7.84375 -7.097656 7.410156 -6.75 6.921875 -6.25 C 6.429688 -5.757812 5.953125 -5.179688 5.484375 -4.515625 C 5.015625 -3.847656 4.625 -3.144531 4.3125 -2.40625 C 4.007812 -1.664062 3.859375 -0.941406 3.859375 -0.234375 C 3.859375 -0.0664062 3.894531 0.046875 3.96875 0.109375 C 4.050781 0.179688 4.132812 0.21875 4.21875 0.21875 C 4.6875 0.21875 5.234375 0.0507812 5.859375 -0.28125 C 6.492188 -0.613281 7.160156 -1.046875 7.859375 -1.578125 C 8.554688 -2.109375 9.238281 -2.675781 9.90625 -3.28125 C 10.582031 -3.894531 11.195312 -4.476562 11.75 -5.03125 C 12.3125 -5.582031 12.773438 -6.050781 13.140625 -6.4375 C 13.503906 -6.820312 13.71875 -7.050781 13.78125 -7.125 C 13.863281 -7.21875 13.945312 -7.234375 14.03125 -7.171875 C 14.113281 -7.109375 14.175781 -7.023438 14.21875 -6.921875 C 14.269531 -6.816406 14.265625 -6.738281 14.203125 -6.6875 C 14.023438 -6.53125 13.722656 -6.242188 13.296875 -5.828125 C 12.867188 -5.410156 12.363281 -4.914062 11.78125 -4.34375 C 11.195312 -3.78125 10.570312 -3.203125 9.90625 -2.609375 C 9.238281 -2.015625 8.570312 -1.460938 7.90625 -0.953125 C 7.238281 -0.453125 6.609375 -0.0390625 6.015625 0.28125 C 5.421875 0.601562 4.910156 0.765625 4.484375 0.765625 Z M 4.484375 0.765625 "/></g></g></g><g fill="#000000" fill-opacity="1"><g transform="translate(143.42639, 337.199978)"><g><path d="M 11.21875 -6.015625 C 11.34375 -6.160156 11.441406 -6.203125 11.515625 -6.140625 C 11.597656 -6.085938 11.644531 -5.988281 11.65625 -5.84375 C 11.675781 -5.707031 11.625 -5.578125 11.5 -5.453125 C 11.300781 -5.242188 11 -4.925781 10.59375 -4.5 C 10.195312 -4.082031 9.734375 -3.609375 9.203125 -3.078125 C 8.679688 -2.546875 8.128906 -2.003906 7.546875 -1.453125 C 6.972656 -0.910156 6.394531 -0.410156 5.8125 0.046875 C 5.238281 0.503906 4.707031 0.875 4.21875 1.15625 C 3.738281 1.445312 3.328125 1.59375 2.984375 1.59375 C 2.222656 1.59375 1.59375 1.363281 1.09375 0.90625 C 0.59375 0.445312 0.34375 -0.25 0.34375 -1.1875 C 0.34375 -1.78125 0.4375 -2.394531 0.625 -3.03125 C 0.820312 -3.675781 1.082031 -4.296875 1.40625 -4.890625 C 1.738281 -5.484375 2.109375 -6.019531 2.515625 -6.5 C 2.929688 -6.976562 3.363281 -7.359375 3.8125 -7.640625 C 4.269531 -7.921875 4.71875 -8.0625 5.15625 -8.0625 C 5.632812 -8.0625 6 -7.953125 6.25 -7.734375 C 6.507812 -7.515625 6.640625 -7.222656 6.640625 -6.859375 C 6.640625 -6.554688 6.53125 -6.21875 6.3125 -5.84375 C 6.101562 -5.46875 5.832031 -5.148438 5.5 -4.890625 C 5.175781 -4.628906 4.828125 -4.5 4.453125 -4.5 C 4.117188 -4.5 3.859375 -4.582031 3.671875 -4.75 C 3.492188 -4.914062 3.320312 -5.097656 3.15625 -5.296875 C 2.707031 -4.617188 2.316406 -3.84375 1.984375 -2.96875 C 1.660156 -2.09375 1.5 -1.222656 1.5 -0.359375 C 1.5 0.0859375 1.601562 0.453125 1.8125 0.734375 C 2.03125 1.015625 2.347656 1.15625 2.765625 1.15625 C 3.117188 1.144531 3.5625 0.976562 4.09375 0.65625 C 4.632812 0.34375 5.207031 -0.0664062 5.8125 -0.578125 C 6.414062 -1.085938 7.015625 -1.632812 7.609375 -2.21875 C 8.210938 -2.800781 8.769531 -3.363281 9.28125 -3.90625 C 9.800781 -4.445312 10.234375 -4.910156 10.578125 -5.296875 C 10.921875 -5.679688 11.132812 -5.921875 11.21875 -6.015625 Z M 5.765625 -7.484375 C 5.429688 -7.484375 5.039062 -7.300781 4.59375 -6.9375 C 4.15625 -6.582031 3.722656 -6.109375 3.296875 -5.515625 C 3.398438 -5.378906 3.519531 -5.269531 3.65625 -5.1875 C 3.800781 -5.113281 3.9375 -5.078125 4.0625 -5.078125 C 4.226562 -5.078125 4.460938 -5.171875 4.765625 -5.359375 C 5.078125 -5.554688 5.359375 -5.816406 5.609375 -6.140625 C 5.867188 -6.472656 6 -6.832031 6 -7.21875 C 6 -7.394531 5.921875 -7.484375 5.765625 -7.484375 Z M 5.765625 -7.484375 "/></g></g></g><g fill="#000000" fill-opacity="1"><g transform="translate(152.522806, 337.199978)"><g/></g></g><g fill="#000000" fill-opacity="1"><g transform="translate(160.51965, 337.199978)"><g><path d="M 17.546875 -11.296875 C 17.566406 -11.148438 17.53125 -11.070312 17.4375 -11.0625 C 17.351562 -11.050781 17.222656 -11.117188 17.046875 -11.265625 C 16.878906 -11.390625 16.507812 -11.519531 15.9375 -11.65625 C 15.363281 -11.800781 14.703125 -11.847656 13.953125 -11.796875 C 13.285156 -10.722656 12.570312 -9.628906 11.8125 -8.515625 C 11.0625 -7.398438 10.304688 -6.328125 9.546875 -5.296875 C 10.046875 -4.578125 10.554688 -3.9375 11.078125 -3.375 C 11.597656 -2.820312 12.085938 -2.378906 12.546875 -2.046875 C 13.003906 -1.722656 13.394531 -1.5625 13.71875 -1.5625 C 14.0625 -1.5625 14.398438 -1.640625 14.734375 -1.796875 C 15.066406 -1.960938 15.347656 -2.046875 15.578125 -2.046875 C 15.804688 -2.046875 16.03125 -2 16.25 -1.90625 C 16.46875 -1.8125 16.578125 -1.707031 16.578125 -1.59375 C 16.578125 -1.53125 16.484375 -1.429688 16.296875 -1.296875 C 16.109375 -1.160156 15.859375 -1.039062 15.546875 -0.9375 C 15.234375 -0.84375 14.898438 -0.796875 14.546875 -0.796875 C 13.410156 -0.796875 12.34375 -1.101562 11.34375 -1.71875 C 10.34375 -2.332031 9.441406 -3.132812 8.640625 -4.125 C 7.847656 -3.125 7.085938 -2.226562 6.359375 -1.4375 C 5.640625 -0.65625 4.976562 -0.0351562 4.375 0.421875 C 3.78125 0.890625 3.273438 1.125 2.859375 1.125 C 2.710938 1.125 2.507812 1.066406 2.25 0.953125 C 1.988281 0.847656 1.722656 0.679688 1.453125 0.453125 C 1.179688 0.234375 0.945312 -0.0507812 0.75 -0.40625 C 0.550781 -0.757812 0.453125 -1.1875 0.453125 -1.6875 C 0.453125 -2.082031 0.59375 -2.613281 0.875 -3.28125 C 1.164062 -3.945312 1.550781 -4.695312 2.03125 -5.53125 C 2.519531 -6.363281 3.0625 -7.238281 3.65625 -8.15625 C 4.25 -9.082031 4.847656 -9.988281 5.453125 -10.875 C 5.210938 -11.945312 5.09375 -12.984375 5.09375 -13.984375 C 5.09375 -14.671875 5.203125 -15.3125 5.421875 -15.90625 C 5.648438 -16.507812 5.945312 -17.039062 6.3125 -17.5 C 6.675781 -17.957031 7.070312 -18.3125 7.5 -18.5625 C 7.9375 -18.8125 8.367188 -18.9375 8.796875 -18.9375 C 9.066406 -18.9375 9.351562 -18.890625 9.65625 -18.796875 C 9.96875 -18.703125 10.242188 -18.601562 10.484375 -18.5 C 10.722656 -18.394531 10.867188 -18.304688 10.921875 -18.234375 C 11.003906 -18.140625 11.019531 -18.085938 10.96875 -18.078125 C 10.925781 -18.066406 10.832031 -18.054688 10.6875 -18.046875 C 10.625 -18.046875 10.597656 -18.035156 10.609375 -18.015625 C 10.628906 -17.992188 10.695312 -17.925781 10.8125 -17.8125 C 10.851562 -17.78125 10.882812 -17.753906 10.90625 -17.734375 C 10.925781 -17.710938 10.9375 -17.65625 10.9375 -17.5625 C 10.9375 -17.425781 10.820312 -17.15625 10.59375 -16.75 C 10.375 -16.34375 10.066406 -15.832031 9.671875 -15.21875 C 9.273438 -14.613281 8.828125 -13.9375 8.328125 -13.1875 C 7.835938 -12.445312 7.320312 -11.664062 6.78125 -10.84375 C 7.007812 -10.039062 7.316406 -9.234375 7.703125 -8.421875 C 8.097656 -7.617188 8.53125 -6.84375 9 -6.09375 C 9.75 -7.082031 10.4375 -8.0625 11.0625 -9.03125 C 11.695312 -10 12.195312 -10.847656 12.5625 -11.578125 C 11.75 -11.390625 11.09375 -11.160156 10.59375 -10.890625 C 10.101562 -10.628906 9.742188 -10.382812 9.515625 -10.15625 C 9.296875 -9.925781 9.164062 -9.785156 9.125 -9.734375 C 9.03125 -9.585938 8.929688 -9.554688 8.828125 -9.640625 C 8.734375 -9.734375 8.660156 -9.875 8.609375 -10.0625 C 8.566406 -10.257812 8.570312 -10.429688 8.625 -10.578125 C 8.738281 -10.890625 9 -11.164062 9.40625 -11.40625 C 9.8125 -11.644531 10.300781 -11.84375 10.875 -12 C 11.445312 -12.15625 12.050781 -12.285156 12.6875 -12.390625 C 13.332031 -12.492188 13.945312 -12.5625 14.53125 -12.59375 C 15.125 -12.625 15.640625 -12.625 16.078125 -12.59375 C 16.515625 -12.570312 16.816406 -12.519531 16.984375 -12.4375 C 17.148438 -12.34375 17.273438 -12.164062 17.359375 -11.90625 C 17.453125 -11.644531 17.515625 -11.441406 17.546875 -11.296875 Z M 6.375 -13.40625 C 6.375 -13.226562 6.378906 -13.050781 6.390625 -12.875 C 6.410156 -12.707031 6.429688 -12.535156 6.453125 -12.359375 C 7.097656 -13.273438 7.679688 -14.125 8.203125 -14.90625 C 8.734375 -15.6875 9.15625 -16.335938 9.46875 -16.859375 C 9.789062 -17.390625 9.953125 -17.738281 9.953125 -17.90625 C 9.953125 -18.03125 9.9375 -18.117188 9.90625 -18.171875 C 9.875 -18.234375 9.742188 -18.265625 9.515625 -18.265625 C 8.992188 -18.265625 8.492188 -18.078125 8.015625 -17.703125 C 7.535156 -17.328125 7.140625 -16.78125 6.828125 -16.0625 C 6.523438 -15.34375 6.375 -14.457031 6.375 -13.40625 Z M 2.28125 0.15625 C 2.707031 0.132812 3.226562 -0.109375 3.84375 -0.578125 C 4.46875 -1.046875 5.140625 -1.660156 5.859375 -2.421875 C 6.585938 -3.179688 7.316406 -4.007812 8.046875 -4.90625 C 7.109375 -6.269531 6.378906 -7.773438 5.859375 -9.421875 C 5.316406 -8.578125 4.789062 -7.734375 4.28125 -6.890625 C 3.769531 -6.054688 3.316406 -5.253906 2.921875 -4.484375 C 2.535156 -3.722656 2.222656 -3.023438 1.984375 -2.390625 C 1.753906 -1.765625 1.640625 -1.238281 1.640625 -0.8125 C 1.640625 -0.5 1.679688 -0.253906 1.765625 -0.078125 C 1.859375 0.0976562 2.03125 0.175781 2.28125 0.15625 Z M 2.28125 0.15625 "/></g></g></g><g fill="#000000" fill-opacity="1"><g transform="translate(177.053123, 337.199978)"><g/></g></g><g fill="#000000" fill-opacity="1"><g transform="translate(185.049968, 337.199978)"><g><path d="M 1.015625 8.765625 C 0.0546875 8.765625 -0.722656 8.519531 -1.328125 8.03125 C -1.929688 7.550781 -2.375 6.914062 -2.65625 6.125 C -2.9375 5.34375 -3.078125 4.5 -3.078125 3.59375 C -3.078125 3.070312 -3.003906 2.539062 -2.859375 2 C -2.710938 1.457031 -2.53125 0.9375 -2.3125 0.4375 C -2.09375 -0.0625 -1.867188 -0.5 -1.640625 -0.875 C -1.421875 -1.25 -1.238281 -1.523438 -1.09375 -1.703125 C -0.882812 -1.953125 -0.664062 -2.101562 -0.4375 -2.15625 C -0.207031 -2.207031 -0.0234375 -2.207031 0.109375 -2.15625 C 0.242188 -2.101562 0.273438 -2.03125 0.203125 -1.9375 C -0.441406 -1.132812 -0.910156 -0.300781 -1.203125 0.5625 C -1.503906 1.4375 -1.695312 2.253906 -1.78125 3.015625 C -1.875 3.773438 -1.921875 4.40625 -1.921875 4.90625 C -1.921875 5.394531 -1.851562 5.863281 -1.71875 6.3125 C -1.582031 6.769531 -1.363281 7.144531 -1.0625 7.4375 C -0.769531 7.726562 -0.382812 7.875 0.09375 7.875 C 0.65625 7.875 1.207031 7.617188 1.75 7.109375 C 2.289062 6.609375 2.820312 5.90625 3.34375 5 C 3.875 4.101562 4.378906 3.066406 4.859375 1.890625 C 5.347656 0.722656 5.816406 -0.53125 6.265625 -1.875 C 6.722656 -3.226562 7.148438 -4.609375 7.546875 -6.015625 C 7.953125 -7.421875 8.328125 -8.800781 8.671875 -10.15625 C 9.023438 -11.519531 9.332031 -12.800781 9.59375 -14 C 9.863281 -15.195312 10.09375 -16.257812 10.28125 -17.1875 C 10.476562 -18.113281 10.625 -18.859375 10.71875 -19.421875 C 10.820312 -19.984375 10.875 -20.289062 10.875 -20.34375 C 10.875 -20.632812 10.84375 -20.875 10.78125 -21.0625 C 10.726562 -21.25 10.554688 -21.320312 10.265625 -21.28125 C 9.859375 -21.226562 9.28125 -21.007812 8.53125 -20.625 C 7.78125 -20.238281 6.921875 -19.710938 5.953125 -19.046875 C 4.992188 -18.390625 4.007812 -17.617188 3 -16.734375 C 2 -15.847656 1.035156 -14.875 0.109375 -13.8125 C -0.816406 -12.75 -1.625 -11.628906 -2.3125 -10.453125 C -3.007812 -9.273438 -3.507812 -8.054688 -3.8125 -6.796875 C -3.832031 -6.703125 -3.898438 -6.679688 -4.015625 -6.734375 C -4.128906 -6.785156 -4.234375 -6.898438 -4.328125 -7.078125 C -4.429688 -7.253906 -4.484375 -7.46875 -4.484375 -7.71875 C -4.484375 -8.46875 -4.25 -9.273438 -3.78125 -10.140625 C -3.320312 -11.003906 -2.707031 -11.898438 -1.9375 -12.828125 C -1.164062 -13.753906 -0.300781 -14.664062 0.65625 -15.5625 C 1.613281 -16.457031 2.601562 -17.296875 3.625 -18.078125 C 4.644531 -18.867188 5.628906 -19.5625 6.578125 -20.15625 C 7.523438 -20.757812 8.367188 -21.234375 9.109375 -21.578125 C 9.859375 -21.921875 10.4375 -22.09375 10.84375 -22.09375 C 11.03125 -22.09375 11.234375 -22.039062 11.453125 -21.9375 C 11.679688 -21.84375 11.878906 -21.707031 12.046875 -21.53125 C 12.210938 -21.363281 12.296875 -21.164062 12.296875 -20.9375 C 12.296875 -20.75 12.234375 -20.265625 12.109375 -19.484375 C 11.992188 -18.703125 11.820312 -17.707031 11.59375 -16.5 C 11.375 -15.300781 11.101562 -13.960938 10.78125 -12.484375 C 10.457031 -11.003906 10.085938 -9.457031 9.671875 -7.84375 C 9.265625 -6.238281 8.816406 -4.644531 8.328125 -3.0625 C 7.835938 -1.476562 7.3125 0.0195312 6.75 1.4375 C 6.195312 2.863281 5.613281 4.125 5 5.21875 C 4.382812 6.3125 3.742188 7.175781 3.078125 7.8125 C 2.410156 8.445312 1.722656 8.765625 1.015625 8.765625 Z M 1.015625 8.765625 "/></g></g></g><g fill="#000000" fill-opacity="1"><g transform="translate(197.045241, 337.199978)"><g><path d="M 7.265625 2.71875 C 6.910156 2.71875 6.59375 2.617188 6.3125 2.421875 C 6.039062 2.222656 5.820312 1.976562 5.65625 1.6875 C 5.488281 1.40625 5.40625 1.144531 5.40625 0.90625 C 5.40625 0.476562 5.476562 -0.03125 5.625 -0.625 C 5.769531 -1.21875 5.953125 -1.851562 6.171875 -2.53125 C 6.390625 -3.207031 6.617188 -3.882812 6.859375 -4.5625 C 7.097656 -5.238281 7.3125 -5.882812 7.5 -6.5 C 7.082031 -6.125 6.632812 -5.660156 6.15625 -5.109375 C 5.675781 -4.554688 5.1875 -3.976562 4.6875 -3.375 C 4.1875 -2.78125 3.703125 -2.222656 3.234375 -1.703125 C 2.773438 -1.191406 2.34375 -0.769531 1.9375 -0.4375 C 1.539062 -0.113281 1.207031 0.046875 0.9375 0.046875 C 0.800781 0.046875 0.648438 -0.0078125 0.484375 -0.125 C 0.316406 -0.25 0.171875 -0.414062 0.046875 -0.625 C -0.078125 -0.832031 -0.140625 -1.050781 -0.140625 -1.28125 C -0.140625 -1.5625 -0.0664062 -1.960938 0.078125 -2.484375 C 0.234375 -3.003906 0.445312 -3.566406 0.71875 -4.171875 C 0.988281 -4.773438 1.289062 -5.359375 1.625 -5.921875 C 1.96875 -6.484375 2.328125 -6.9375 2.703125 -7.28125 C 3.078125 -7.632812 3.445312 -7.8125 3.8125 -7.8125 C 4.28125 -7.8125 4.691406 -7.707031 5.046875 -7.5 C 5.410156 -7.289062 5.691406 -7.0625 5.890625 -6.8125 C 6.085938 -6.5625 6.15625 -6.394531 6.09375 -6.3125 C 6.019531 -6.207031 5.921875 -6.195312 5.796875 -6.28125 C 5.679688 -6.363281 5.550781 -6.46875 5.40625 -6.59375 C 5.257812 -6.71875 5.109375 -6.78125 4.953125 -6.78125 C 4.742188 -6.78125 4.472656 -6.648438 4.140625 -6.390625 C 3.804688 -6.140625 3.457031 -5.804688 3.09375 -5.390625 C 2.726562 -4.972656 2.382812 -4.503906 2.0625 -3.984375 C 1.738281 -3.472656 1.476562 -2.960938 1.28125 -2.453125 C 1.082031 -1.941406 0.984375 -1.472656 0.984375 -1.046875 C 0.984375 -0.929688 1.007812 -0.859375 1.0625 -0.828125 C 1.125 -0.804688 1.171875 -0.796875 1.203125 -0.796875 C 1.359375 -0.796875 1.582031 -0.910156 1.875 -1.140625 C 2.164062 -1.378906 2.5 -1.691406 2.875 -2.078125 C 3.25 -2.460938 3.632812 -2.878906 4.03125 -3.328125 C 4.425781 -3.773438 4.800781 -4.210938 5.15625 -4.640625 C 5.519531 -5.066406 5.835938 -5.445312 6.109375 -5.78125 C 6.378906 -6.113281 6.570312 -6.351562 6.6875 -6.5 C 7.03125 -6.925781 7.285156 -7.226562 7.453125 -7.40625 C 7.628906 -7.59375 7.785156 -7.6875 7.921875 -7.6875 C 8.066406 -7.6875 8.25 -7.601562 8.46875 -7.4375 C 8.6875 -7.269531 8.796875 -7.050781 8.796875 -6.78125 C 8.796875 -6.65625 8.742188 -6.398438 8.640625 -6.015625 C 8.535156 -5.628906 8.394531 -5.160156 8.21875 -4.609375 C 8.039062 -4.066406 7.851562 -3.484375 7.65625 -2.859375 C 7.46875 -2.242188 7.285156 -1.632812 7.109375 -1.03125 C 6.941406 -0.4375 6.804688 0.09375 6.703125 0.5625 C 6.597656 1.039062 6.546875 1.414062 6.546875 1.6875 C 6.546875 1.851562 6.59375 1.960938 6.6875 2.015625 C 6.789062 2.066406 6.867188 2.09375 6.921875 2.09375 C 7.148438 2.09375 7.476562 1.921875 7.90625 1.578125 C 8.34375 1.242188 8.832031 0.800781 9.375 0.25 C 9.914062 -0.289062 10.472656 -0.875 11.046875 -1.5 C 11.617188 -2.132812 12.160156 -2.753906 12.671875 -3.359375 C 13.191406 -3.960938 13.648438 -4.484375 14.046875 -4.921875 C 14.441406 -5.367188 14.726562 -5.675781 14.90625 -5.84375 C 15.050781 -5.976562 15.144531 -5.976562 15.1875 -5.84375 C 15.238281 -5.71875 15.226562 -5.617188 15.15625 -5.546875 C 15.144531 -5.515625 15 -5.335938 14.71875 -5.015625 C 14.445312 -4.703125 14.097656 -4.296875 13.671875 -3.796875 C 13.253906 -3.296875 12.785156 -2.742188 12.265625 -2.140625 C 11.753906 -1.535156 11.238281 -0.941406 10.71875 -0.359375 C 10.238281 0.171875 9.78125 0.671875 9.34375 1.140625 C 8.914062 1.617188 8.519531 2 8.15625 2.28125 C 7.800781 2.570312 7.503906 2.71875 7.265625 2.71875 Z M 7.265625 2.71875 "/></g></g></g><g fill="#000000" fill-opacity="1"><g transform="translate(209.400362, 337.199978)"><g><path d="M 0.5625 2.453125 C 0.488281 2.515625 0.359375 2.515625 0.171875 2.453125 C -0.00390625 2.398438 -0.171875 2.296875 -0.328125 2.140625 C -0.484375 1.992188 -0.554688 1.796875 -0.546875 1.546875 C -0.503906 1.035156 -0.378906 0.367188 -0.171875 -0.453125 C 0.0351562 -1.273438 0.300781 -2.175781 0.625 -3.15625 C 0.957031 -4.144531 1.3125 -5.125 1.6875 -6.09375 C 1.71875 -6.1875 1.71875 -6.28125 1.6875 -6.375 L 1.65625 -6.421875 C 1.601562 -6.523438 1.597656 -6.625 1.640625 -6.71875 C 1.734375 -6.90625 1.847656 -7.128906 1.984375 -7.390625 C 2.117188 -7.648438 2.25 -7.882812 2.375 -8.09375 C 2.507812 -8.300781 2.617188 -8.414062 2.703125 -8.4375 C 2.796875 -8.46875 2.925781 -8.441406 3.09375 -8.359375 C 3.257812 -8.273438 3.40625 -8.160156 3.53125 -8.015625 C 3.664062 -7.878906 3.726562 -7.726562 3.71875 -7.5625 C 3.707031 -7.4375 3.585938 -7.117188 3.359375 -6.609375 C 3.128906 -6.109375 2.851562 -5.472656 2.53125 -4.703125 C 2.21875 -3.941406 1.910156 -3.109375 1.609375 -2.203125 C 1.304688 -1.296875 1.078125 -0.375 0.921875 0.5625 C 0.890625 0.707031 0.960938 0.660156 1.140625 0.421875 C 1.328125 0.179688 1.582031 -0.179688 1.90625 -0.671875 C 2.238281 -1.171875 2.625 -1.734375 3.0625 -2.359375 C 3.5 -2.984375 3.96875 -3.625 4.46875 -4.28125 C 4.976562 -4.9375 5.492188 -5.539062 6.015625 -6.09375 C 6.546875 -6.644531 7.066406 -7.085938 7.578125 -7.421875 C 8.085938 -7.765625 8.554688 -7.9375 8.984375 -7.9375 C 9.242188 -7.9375 9.460938 -7.835938 9.640625 -7.640625 C 9.828125 -7.441406 9.921875 -7.128906 9.921875 -6.703125 C 9.921875 -6.472656 9.863281 -6.140625 9.75 -5.703125 C 9.632812 -5.265625 9.492188 -4.773438 9.328125 -4.234375 C 9.160156 -3.691406 8.988281 -3.144531 8.8125 -2.59375 C 8.644531 -2.039062 8.492188 -1.519531 8.359375 -1.03125 C 8.222656 -0.550781 8.128906 -0.15625 8.078125 0.15625 C 8.035156 0.46875 8.0625 0.648438 8.15625 0.703125 C 8.289062 0.773438 8.507812 0.710938 8.8125 0.515625 C 9.125 0.328125 9.484375 0.0507812 9.890625 -0.3125 C 10.304688 -0.675781 10.75 -1.09375 11.21875 -1.5625 C 11.6875 -2.03125 12.144531 -2.503906 12.59375 -2.984375 C 13.050781 -3.472656 13.46875 -3.929688 13.84375 -4.359375 C 14.226562 -4.785156 14.546875 -5.140625 14.796875 -5.421875 C 15.054688 -5.710938 15.210938 -5.882812 15.265625 -5.9375 C 15.453125 -6.132812 15.582031 -6.175781 15.65625 -6.0625 C 15.738281 -5.957031 15.726562 -5.832031 15.625 -5.6875 C 15.582031 -5.625 15.414062 -5.410156 15.125 -5.046875 C 14.84375 -4.691406 14.476562 -4.25 14.03125 -3.71875 C 13.582031 -3.1875 13.09375 -2.625 12.5625 -2.03125 C 12.03125 -1.445312 11.492188 -0.898438 10.953125 -0.390625 C 10.421875 0.117188 9.925781 0.535156 9.46875 0.859375 C 9.007812 1.191406 8.632812 1.359375 8.34375 1.359375 C 8.019531 1.359375 7.75 1.28125 7.53125 1.125 C 7.320312 0.976562 7.164062 0.8125 7.0625 0.625 C 6.96875 0.4375 6.921875 0.28125 6.921875 0.15625 C 6.921875 -0.375 7 -0.960938 7.15625 -1.609375 C 7.320312 -2.265625 7.515625 -2.914062 7.734375 -3.5625 C 7.953125 -4.21875 8.160156 -4.820312 8.359375 -5.375 C 8.554688 -5.9375 8.703125 -6.398438 8.796875 -6.765625 C 8.898438 -7.128906 8.90625 -7.347656 8.8125 -7.421875 C 8.632812 -7.566406 8.335938 -7.492188 7.921875 -7.203125 C 7.503906 -6.921875 7.007812 -6.46875 6.4375 -5.84375 C 5.863281 -5.21875 5.242188 -4.46875 4.578125 -3.59375 C 3.921875 -2.726562 3.25 -1.78125 2.5625 -0.75 C 1.882812 0.28125 1.21875 1.347656 0.5625 2.453125 Z M 0.5625 2.453125 "/></g></g></g><g fill="#000000" fill-opacity="1"><g transform="translate(222.575165, 337.199978)"><g><path d="M 2.375 -4 C 2.332031 -3.988281 2.257812 -4.035156 2.15625 -4.140625 C 2.0625 -4.242188 1.972656 -4.375 1.890625 -4.53125 C 1.804688 -4.6875 1.769531 -4.820312 1.78125 -4.9375 C 1.800781 -5.0625 1.914062 -5.128906 2.125 -5.140625 C 2.25 -5.148438 2.5 -5.164062 2.875 -5.1875 C 3.25 -5.207031 3.6875 -5.226562 4.1875 -5.25 C 4.695312 -5.269531 5.226562 -5.289062 5.78125 -5.3125 C 6.34375 -5.34375 6.867188 -5.367188 7.359375 -5.390625 C 7.847656 -5.410156 8.269531 -5.421875 8.625 -5.421875 C 8.976562 -5.429688 9.203125 -5.4375 9.296875 -5.4375 C 9.441406 -5.4375 9.570312 -5.375 9.6875 -5.25 C 9.8125 -5.132812 9.910156 -5 9.984375 -4.84375 C 10.054688 -4.695312 10.085938 -4.566406 10.078125 -4.453125 C 10.066406 -4.335938 10 -4.285156 9.875 -4.296875 C 9.800781 -4.304688 9.566406 -4.304688 9.171875 -4.296875 C 8.785156 -4.285156 8.3125 -4.269531 7.75 -4.25 C 7.195312 -4.226562 6.613281 -4.203125 6 -4.171875 C 5.382812 -4.148438 4.804688 -4.125 4.265625 -4.09375 C 3.722656 -4.070312 3.28125 -4.050781 2.9375 -4.03125 C 2.59375 -4.019531 2.40625 -4.007812 2.375 -4 Z M 2.375 -4 "/></g></g></g><g fill="#000000" fill-opacity="1"><g transform="translate(234.570438, 337.199978)"><g><path d="M 15.546875 -20.859375 C 16.171875 -20.859375 16.695312 -20.738281 17.125 -20.5 C 17.5625 -20.257812 17.910156 -19.945312 18.171875 -19.5625 C 18.441406 -19.175781 18.632812 -18.753906 18.75 -18.296875 C 18.875 -17.847656 18.9375 -17.410156 18.9375 -16.984375 C 18.9375 -16.097656 18.800781 -15.09375 18.53125 -13.96875 C 18.257812 -12.84375 17.851562 -11.671875 17.3125 -10.453125 C 16.78125 -9.242188 16.132812 -8.070312 15.375 -6.9375 C 14.613281 -5.800781 13.742188 -4.773438 12.765625 -3.859375 C 11.796875 -2.941406 10.734375 -2.210938 9.578125 -1.671875 C 8.421875 -1.128906 7.175781 -0.859375 5.84375 -0.859375 C 5.4375 -0.859375 5.039062 -0.894531 4.65625 -0.96875 C 4.28125 -1.039062 3.910156 -1.144531 3.546875 -1.28125 C 3.335938 -0.675781 3.148438 -0.078125 2.984375 0.515625 C 2.816406 1.109375 2.660156 1.679688 2.515625 2.234375 C 2.453125 2.515625 2.378906 2.878906 2.296875 3.328125 C 2.222656 3.785156 2.148438 4.28125 2.078125 4.8125 C 2.015625 5.351562 1.960938 5.875 1.921875 6.375 C 1.890625 6.882812 1.875 7.328125 1.875 7.703125 C 1.875 7.847656 1.796875 7.894531 1.640625 7.84375 C 1.492188 7.800781 1.320312 7.707031 1.125 7.5625 C 0.9375 7.414062 0.765625 7.253906 0.609375 7.078125 C 0.453125 6.898438 0.375 6.753906 0.375 6.640625 C 0.363281 5.273438 0.453125 3.8125 0.640625 2.25 C 0.828125 0.6875 1.085938 -0.898438 1.421875 -2.515625 C 0.773438 -3.023438 0.242188 -3.613281 -0.171875 -4.28125 C -0.597656 -4.945312 -0.867188 -5.613281 -0.984375 -6.28125 C -1.003906 -6.4375 -0.960938 -6.5 -0.859375 -6.46875 C -0.753906 -6.445312 -0.617188 -6.363281 -0.453125 -6.21875 C -0.296875 -6.082031 -0.15625 -5.925781 -0.03125 -5.75 C 0.0820312 -5.570312 0.140625 -5.410156 0.140625 -5.265625 C 0.140625 -4.960938 0.210938 -4.664062 0.359375 -4.375 C 0.515625 -4.082031 0.710938 -3.820312 0.953125 -3.59375 C 1.023438 -3.539062 1.109375 -3.460938 1.203125 -3.359375 C 1.296875 -3.253906 1.410156 -3.140625 1.546875 -3.015625 C 1.929688 -4.804688 2.375 -6.570312 2.875 -8.3125 C 3.375 -10.0625 3.898438 -11.71875 4.453125 -13.28125 C 5.003906 -14.851562 5.539062 -16.257812 6.0625 -17.5 C 6.582031 -18.75 7.054688 -19.765625 7.484375 -20.546875 C 7.921875 -21.335938 8.265625 -21.828125 8.515625 -22.015625 C 8.609375 -22.085938 8.773438 -22.0625 9.015625 -21.9375 C 9.253906 -21.820312 9.5 -21.664062 9.75 -21.46875 C 10 -21.28125 10.191406 -21.101562 10.328125 -20.9375 C 10.472656 -20.769531 10.484375 -20.664062 10.359375 -20.625 C 10.109375 -20.53125 9.84375 -20.390625 9.5625 -20.203125 C 9.289062 -20.023438 9.007812 -19.664062 8.71875 -19.125 C 7.988281 -17.75 7.253906 -16.210938 6.515625 -14.515625 C 5.773438 -12.828125 5.078125 -10.953125 4.421875 -8.890625 C 3.773438 -6.835938 3.226562 -4.582031 2.78125 -2.125 C 2.84375 -2.09375 2.90625 -2.054688 2.96875 -2.015625 C 3.039062 -1.972656 3.117188 -1.941406 3.203125 -1.921875 C 3.679688 -3.273438 4.207031 -4.679688 4.78125 -6.140625 C 5.363281 -7.609375 5.988281 -9.046875 6.65625 -10.453125 C 7.320312 -11.867188 8.019531 -13.203125 8.75 -14.453125 C 9.476562 -15.710938 10.222656 -16.820312 10.984375 -17.78125 C 11.742188 -18.738281 12.503906 -19.488281 13.265625 -20.03125 C 14.035156 -20.582031 14.796875 -20.859375 15.546875 -20.859375 Z M 5.078125 -1.5625 C 6.128906 -1.5625 7.140625 -1.769531 8.109375 -2.1875 C 9.078125 -2.601562 9.988281 -3.175781 10.84375 -3.90625 C 11.707031 -4.632812 12.5 -5.460938 13.21875 -6.390625 C 13.945312 -7.328125 14.597656 -8.316406 15.171875 -9.359375 C 15.753906 -10.398438 16.25 -11.441406 16.65625 -12.484375 C 17.0625 -13.523438 17.367188 -14.515625 17.578125 -15.453125 C 17.796875 -16.398438 17.90625 -17.242188 17.90625 -17.984375 C 17.90625 -18.566406 17.773438 -19.054688 17.515625 -19.453125 C 17.253906 -19.859375 16.820312 -20.0625 16.21875 -20.0625 C 15.5 -20.0625 14.757812 -19.8125 14 -19.3125 C 13.238281 -18.8125 12.472656 -18.113281 11.703125 -17.21875 C 10.929688 -16.320312 10.171875 -15.285156 9.421875 -14.109375 C 8.671875 -12.941406 7.945312 -11.675781 7.25 -10.3125 C 6.5625 -8.945312 5.914062 -7.535156 5.3125 -6.078125 C 4.71875 -4.628906 4.179688 -3.191406 3.703125 -1.765625 C 3.898438 -1.710938 4.113281 -1.664062 4.34375 -1.625 C 4.582031 -1.582031 4.828125 -1.5625 5.078125 -1.5625 Z M 2.34375 0.65625 C 2.539062 -0.0195312 2.773438 -0.738281 3.046875 -1.5 C 2.984375 -1.53125 2.921875 -1.5625 2.859375 -1.59375 C 2.804688 -1.625 2.753906 -1.65625 2.703125 -1.6875 C 2.566406 -0.925781 2.445312 -0.144531 2.34375 0.65625 Z M 2.34375 0.65625 "/></g></g></g><g fill="#000000" fill-opacity="1"><g transform="translate(249.56452, 337.199978)"><g><path d="M 7.265625 2.71875 C 6.910156 2.71875 6.59375 2.617188 6.3125 2.421875 C 6.039062 2.222656 5.820312 1.976562 5.65625 1.6875 C 5.488281 1.40625 5.40625 1.144531 5.40625 0.90625 C 5.40625 0.476562 5.476562 -0.03125 5.625 -0.625 C 5.769531 -1.21875 5.953125 -1.851562 6.171875 -2.53125 C 6.390625 -3.207031 6.617188 -3.882812 6.859375 -4.5625 C 7.097656 -5.238281 7.3125 -5.882812 7.5 -6.5 C 7.082031 -6.125 6.632812 -5.660156 6.15625 -5.109375 C 5.675781 -4.554688 5.1875 -3.976562 4.6875 -3.375 C 4.1875 -2.78125 3.703125 -2.222656 3.234375 -1.703125 C 2.773438 -1.191406 2.34375 -0.769531 1.9375 -0.4375 C 1.539062 -0.113281 1.207031 0.046875 0.9375 0.046875 C 0.800781 0.046875 0.648438 -0.0078125 0.484375 -0.125 C 0.316406 -0.25 0.171875 -0.414062 0.046875 -0.625 C -0.078125 -0.832031 -0.140625 -1.050781 -0.140625 -1.28125 C -0.140625 -1.5625 -0.0664062 -1.960938 0.078125 -2.484375 C 0.234375 -3.003906 0.445312 -3.566406 0.71875 -4.171875 C 0.988281 -4.773438 1.289062 -5.359375 1.625 -5.921875 C 1.96875 -6.484375 2.328125 -6.9375 2.703125 -7.28125 C 3.078125 -7.632812 3.445312 -7.8125 3.8125 -7.8125 C 4.28125 -7.8125 4.691406 -7.707031 5.046875 -7.5 C 5.410156 -7.289062 5.691406 -7.0625 5.890625 -6.8125 C 6.085938 -6.5625 6.15625 -6.394531 6.09375 -6.3125 C 6.019531 -6.207031 5.921875 -6.195312 5.796875 -6.28125 C 5.679688 -6.363281 5.550781 -6.46875 5.40625 -6.59375 C 5.257812 -6.71875 5.109375 -6.78125 4.953125 -6.78125 C 4.742188 -6.78125 4.472656 -6.648438 4.140625 -6.390625 C 3.804688 -6.140625 3.457031 -5.804688 3.09375 -5.390625 C 2.726562 -4.972656 2.382812 -4.503906 2.0625 -3.984375 C 1.738281 -3.472656 1.476562 -2.960938 1.28125 -2.453125 C 1.082031 -1.941406 0.984375 -1.472656 0.984375 -1.046875 C 0.984375 -0.929688 1.007812 -0.859375 1.0625 -0.828125 C 1.125 -0.804688 1.171875 -0.796875 1.203125 -0.796875 C 1.359375 -0.796875 1.582031 -0.910156 1.875 -1.140625 C 2.164062 -1.378906 2.5 -1.691406 2.875 -2.078125 C 3.25 -2.460938 3.632812 -2.878906 4.03125 -3.328125 C 4.425781 -3.773438 4.800781 -4.210938 5.15625 -4.640625 C 5.519531 -5.066406 5.835938 -5.445312 6.109375 -5.78125 C 6.378906 -6.113281 6.570312 -6.351562 6.6875 -6.5 C 7.03125 -6.925781 7.285156 -7.226562 7.453125 -7.40625 C 7.628906 -7.59375 7.785156 -7.6875 7.921875 -7.6875 C 8.066406 -7.6875 8.25 -7.601562 8.46875 -7.4375 C 8.6875 -7.269531 8.796875 -7.050781 8.796875 -6.78125 C 8.796875 -6.65625 8.742188 -6.398438 8.640625 -6.015625 C 8.535156 -5.628906 8.394531 -5.160156 8.21875 -4.609375 C 8.039062 -4.066406 7.851562 -3.484375 7.65625 -2.859375 C 7.46875 -2.242188 7.285156 -1.632812 7.109375 -1.03125 C 6.941406 -0.4375 6.804688 0.09375 6.703125 0.5625 C 6.597656 1.039062 6.546875 1.414062 6.546875 1.6875 C 6.546875 1.851562 6.59375 1.960938 6.6875 2.015625 C 6.789062 2.066406 6.867188 2.09375 6.921875 2.09375 C 7.148438 2.09375 7.476562 1.921875 7.90625 1.578125 C 8.34375 1.242188 8.832031 0.800781 9.375 0.25 C 9.914062 -0.289062 10.472656 -0.875 11.046875 -1.5 C 11.617188 -2.132812 12.160156 -2.753906 12.671875 -3.359375 C 13.191406 -3.960938 13.648438 -4.484375 14.046875 -4.921875 C 14.441406 -5.367188 14.726562 -5.675781 14.90625 -5.84375 C 15.050781 -5.976562 15.144531 -5.976562 15.1875 -5.84375 C 15.238281 -5.71875 15.226562 -5.617188 15.15625 -5.546875 C 15.144531 -5.515625 15 -5.335938 14.71875 -5.015625 C 14.445312 -4.703125 14.097656 -4.296875 13.671875 -3.796875 C 13.253906 -3.296875 12.785156 -2.742188 12.265625 -2.140625 C 11.753906 -1.535156 11.238281 -0.941406 10.71875 -0.359375 C 10.238281 0.171875 9.78125 0.671875 9.34375 1.140625 C 8.914062 1.617188 8.519531 2 8.15625 2.28125 C 7.800781 2.570312 7.503906 2.71875 7.265625 2.71875 Z M 7.265625 2.71875 "/></g></g></g><g fill="#000000" fill-opacity="1"><g transform="translate(261.919641, 337.199978)"><g><path d="M 6.5 4.65625 C 6.34375 4.65625 6.117188 4.582031 5.828125 4.4375 C 5.546875 4.289062 5.289062 4.070312 5.0625 3.78125 C 4.832031 3.5 4.71875 3.140625 4.71875 2.703125 C 4.71875 2.285156 4.800781 1.765625 4.96875 1.140625 C 5.144531 0.523438 5.375 -0.144531 5.65625 -0.875 C 5.945312 -1.613281 6.253906 -2.351562 6.578125 -3.09375 C 6.910156 -3.84375 7.234375 -4.546875 7.546875 -5.203125 C 7.859375 -5.867188 8.128906 -6.441406 8.359375 -6.921875 C 8.585938 -7.410156 8.75 -7.757812 8.84375 -7.96875 C 8.9375 -8.1875 8.921875 -8.21875 8.796875 -8.0625 C 8.660156 -7.875 8.410156 -7.550781 8.046875 -7.09375 C 7.691406 -6.644531 7.269531 -6.125 6.78125 -5.53125 C 6.300781 -4.945312 5.789062 -4.347656 5.25 -3.734375 C 4.707031 -3.117188 4.179688 -2.550781 3.671875 -2.03125 C 3.160156 -1.519531 2.703125 -1.097656 2.296875 -0.765625 C 1.890625 -0.441406 1.578125 -0.28125 1.359375 -0.28125 C 1.210938 -0.28125 1.050781 -0.351562 0.875 -0.5 C 0.707031 -0.644531 0.566406 -0.8125 0.453125 -1 C 0.335938 -1.195312 0.28125 -1.378906 0.28125 -1.546875 C 0.28125 -2.046875 0.351562 -2.53125 0.5 -3 C 0.644531 -3.476562 0.800781 -3.894531 0.96875 -4.25 C 1.132812 -4.613281 1.25 -4.878906 1.3125 -5.046875 C 1.351562 -5.140625 1.351562 -5.226562 1.3125 -5.3125 L 1.296875 -5.359375 C 1.242188 -5.460938 1.238281 -5.5625 1.28125 -5.65625 C 1.394531 -5.945312 1.53125 -6.210938 1.6875 -6.453125 C 1.851562 -6.691406 2 -6.832031 2.125 -6.875 C 2.21875 -6.90625 2.363281 -6.875 2.5625 -6.78125 C 2.757812 -6.6875 2.929688 -6.566406 3.078125 -6.421875 C 3.222656 -6.273438 3.242188 -6.132812 3.140625 -6 C 3.015625 -5.84375 2.835938 -5.585938 2.609375 -5.234375 C 2.378906 -4.878906 2.144531 -4.484375 1.90625 -4.046875 C 1.664062 -3.617188 1.460938 -3.191406 1.296875 -2.765625 C 1.140625 -2.347656 1.066406 -1.992188 1.078125 -1.703125 C 1.085938 -1.554688 1.109375 -1.4375 1.140625 -1.34375 C 1.179688 -1.25 1.269531 -1.203125 1.40625 -1.203125 C 1.695312 -1.203125 2.050781 -1.351562 2.46875 -1.65625 C 2.882812 -1.96875 3.335938 -2.378906 3.828125 -2.890625 C 4.328125 -3.398438 4.832031 -3.957031 5.34375 -4.5625 C 5.863281 -5.175781 6.367188 -5.785156 6.859375 -6.390625 C 7.347656 -6.992188 7.796875 -7.550781 8.203125 -8.0625 C 8.609375 -8.582031 8.957031 -8.992188 9.25 -9.296875 C 9.539062 -9.609375 9.726562 -9.765625 9.8125 -9.765625 C 9.875 -9.773438 9.988281 -9.75 10.15625 -9.6875 C 10.320312 -9.625 10.46875 -9.535156 10.59375 -9.421875 C 10.71875 -9.316406 10.738281 -9.179688 10.65625 -9.015625 C 10.613281 -8.941406 10.476562 -8.65625 10.25 -8.15625 C 10.019531 -7.664062 9.726562 -7.039062 9.375 -6.28125 C 9.03125 -5.53125 8.664062 -4.710938 8.28125 -3.828125 C 7.90625 -2.953125 7.550781 -2.070312 7.21875 -1.1875 C 6.882812 -0.3125 6.609375 0.492188 6.390625 1.234375 C 6.179688 1.984375 6.078125 2.585938 6.078125 3.046875 C 6.078125 3.578125 6.238281 3.910156 6.5625 4.046875 C 6.644531 4.066406 6.710938 4.128906 6.765625 4.234375 C 6.816406 4.347656 6.828125 4.445312 6.796875 4.53125 C 6.773438 4.613281 6.675781 4.65625 6.5 4.65625 Z M 6.5 4.65625 "/></g></g></g><g fill="#000000" fill-opacity="1"><g transform="translate(273.914914, 337.199978)"><g><path d="M 0.984375 9.6875 C 0.628906 9.6875 0.285156 9.617188 -0.046875 9.484375 C -0.390625 9.359375 -0.671875 9.171875 -0.890625 8.921875 C -1.109375 8.679688 -1.21875 8.378906 -1.21875 8.015625 C -1.21875 7.367188 -1.117188 6.484375 -0.921875 5.359375 C -0.734375 4.242188 -0.460938 2.960938 -0.109375 1.515625 C 0.234375 0.078125 0.625 -1.457031 1.0625 -3.09375 C 1.507812 -4.738281 1.988281 -6.40625 2.5 -8.09375 C 3.019531 -9.789062 3.539062 -11.453125 4.0625 -13.078125 C 4.59375 -14.703125 5.113281 -16.222656 5.625 -17.640625 C 6.144531 -19.066406 6.625 -20.320312 7.0625 -21.40625 C 7.5 -22.5 7.882812 -23.347656 8.21875 -23.953125 C 8.5625 -24.566406 8.820312 -24.875 9 -24.875 C 9.175781 -24.875 9.40625 -24.8125 9.6875 -24.6875 C 9.976562 -24.570312 10.222656 -24.4375 10.421875 -24.28125 C 10.617188 -24.125 10.675781 -23.976562 10.59375 -23.84375 C 10.53125 -23.738281 10.445312 -23.691406 10.34375 -23.703125 C 10.238281 -23.722656 10.117188 -23.742188 9.984375 -23.765625 C 9.859375 -23.785156 9.71875 -23.75 9.5625 -23.65625 C 9.332031 -23.507812 9.046875 -23.113281 8.703125 -22.46875 C 8.359375 -21.820312 7.972656 -20.972656 7.546875 -19.921875 C 7.117188 -18.878906 6.671875 -17.695312 6.203125 -16.375 C 5.742188 -15.0625 5.273438 -13.65625 4.796875 -12.15625 C 4.328125 -10.664062 3.867188 -9.140625 3.421875 -7.578125 C 2.984375 -6.015625 2.566406 -4.476562 2.171875 -2.96875 C 1.785156 -1.46875 1.445312 -0.0390625 1.15625 1.3125 C 0.875 2.664062 0.648438 3.878906 0.484375 4.953125 C 0.316406 6.035156 0.234375 6.929688 0.234375 7.640625 C 0.234375 7.984375 0.257812 8.3125 0.3125 8.625 C 0.375 8.9375 0.507812 9.09375 0.71875 9.09375 C 0.914062 9.09375 1.191406 8.890625 1.546875 8.484375 C 1.910156 8.078125 2.328125 7.523438 2.796875 6.828125 C 3.273438 6.128906 3.785156 5.328125 4.328125 4.421875 C 4.867188 3.523438 5.421875 2.570312 5.984375 1.5625 C 6.554688 0.5625 7.109375 -0.4375 7.640625 -1.4375 C 8.179688 -2.445312 8.6875 -3.410156 9.15625 -4.328125 C 9.632812 -5.242188 10.054688 -6.054688 10.421875 -6.765625 C 10.429688 -6.785156 10.476562 -6.785156 10.5625 -6.765625 C 10.65625 -6.742188 10.738281 -6.707031 10.8125 -6.65625 C 10.882812 -6.601562 10.894531 -6.53125 10.84375 -6.4375 C 10.320312 -5.46875 9.753906 -4.398438 9.140625 -3.234375 C 8.535156 -2.078125 7.910156 -0.894531 7.265625 0.3125 C 6.628906 1.53125 6 2.695312 5.375 3.8125 C 4.75 4.925781 4.15625 5.921875 3.59375 6.796875 C 3.039062 7.679688 2.539062 8.382812 2.09375 8.90625 C 1.644531 9.425781 1.273438 9.6875 0.984375 9.6875 Z M 0.984375 9.6875 "/></g></g></g></svg>